<svg xmlns="http://www.w3.org/2000/svg" viewBox="0 0 177.85 179.66"><defs><style>.cls-1{fill:#bde0f7;}.cls-2{fill:#204e86;}.cls-3{fill:#337ac8;}</style></defs><title>Asset 3</title><g data-name="Layer 2"><g  data-name="Layer 1"><polygon class="cls-1" points="88.86 154.02 44.41 128.32 44.38 179.66 88.86 154.02"/><polygon class="cls-2" points="133.34 128.38 88.89 102.68 88.86 154.02 133.34 128.38"/><polygon class="cls-3" points="44.41 128.32 88.86 154.02 88.89 102.68 44.41 128.32"/><polygon class="cls-2" points="133.37 77.04 177.81 102.74 177.85 51.4 133.37 77.04"/><polygon class="cls-1" points="88.92 51.34 133.37 77.04 133.4 25.7 88.92 51.34"/><polygon class="cls-3" points="177.85 51.4 133.4 25.7 133.37 77.04 177.85 51.4"/><polygon class="cls-2" points="44.48 25.64 88.92 51.34 88.96 0 44.48 25.64"/><polygon class="cls-1" points="0 51.28 44.45 76.98 44.48 25.64 0 51.28"/><polygon class="cls-3" points="88.92 51.34 44.48 25.64 44.45 76.98 88.92 51.34"/><polygon class="cls-1" points="133.34 128.38 177.78 154.08 177.81 102.74 133.34 128.38"/></g></g></svg>