<svg xmlns="http://www.w3.org/2000/svg" viewBox="0 0 572.12 179.66"><defs><style>.cls-1{fill:#bde0f7;}.cls-2{fill:#204e86;}.cls-3{fill:#337ac8;}.cls-4{fill:#111;stroke:#111;stroke-miterlimit:10;}</style></defs><title>diverseLogo</title><g id="Layer_2" data-name="Layer 2"><g id="Layer_1-2" data-name="Layer 1"><polygon class="cls-1" points="88.86 154.02 44.41 128.32 44.38 179.66 88.86 154.02"/><polygon class="cls-2" points="133.34 128.38 88.89 102.68 88.86 154.02 133.34 128.38"/><polygon class="cls-3" points="44.41 128.32 88.86 154.02 88.89 102.68 44.41 128.32"/><polygon class="cls-2" points="133.37 77.04 177.81 102.74 177.85 51.4 133.37 77.04"/><polygon class="cls-1" points="88.92 51.34 133.37 77.04 133.4 25.7 88.92 51.34"/><polygon class="cls-3" points="177.85 51.4 133.4 25.7 133.37 77.04 177.85 51.4"/><polygon class="cls-2" points="44.48 25.64 88.92 51.34 88.96 0 44.48 25.64"/><polygon class="cls-1" points="0 51.28 44.45 76.98 44.48 25.64 0 51.28"/><polygon class="cls-3" points="88.92 51.34 44.48 25.64 44.45 76.98 88.92 51.34"/><polygon class="cls-1" points="133.34 128.38 177.78 154.08 177.81 102.74 133.34 128.38"/><path class="cls-4" d="M223,72.5h21.3a30.58,30.58,0,0,1,13.86,3,22.45,22.45,0,0,1,9.39,8.56,24.21,24.21,0,0,1,3.34,12.77,24.18,24.18,0,0,1-3.34,12.77,22.45,22.45,0,0,1-9.39,8.56,30.58,30.58,0,0,1-13.86,3H223Zm20.88,41.06a20.62,20.62,0,0,0,9.43-2,14.67,14.67,0,0,0,6.27-5.85,18.78,18.78,0,0,0,0-17.6,14.67,14.67,0,0,0-6.27-5.85,20.63,20.63,0,0,0-9.43-2.06H232.05v33.41Z"/><path class="cls-4" d="M287.45,72.5h9.05v48.72h-9.05Z"/><path class="cls-4" d="M360.8,72.5l-21.22,48.72h-8.91L309.37,72.5h9.81l16.22,37.58L351.76,72.5Z"/><path class="cls-4" d="M409.45,113.63v7.59H372.91V72.5h35.57v7.59H382V92.75h23.53v7.45H382v13.43Z"/><path class="cls-4" d="M458.38,121.22,448.43,107a17.62,17.62,0,0,1-1.88.07h-11v14.2h-9.05V72.5h20a27.08,27.08,0,0,1,11,2.09,16,16,0,0,1,7.2,6,16.77,16.77,0,0,1,2.5,9.26,16.57,16.57,0,0,1-2.67,9.47,16,16,0,0,1-7.7,5.91l11.21,16Zm-3.27-38.56q-3.06-2.5-9-2.51H435.56V99.57h10.57c3.95,0,6.94-.84,9-2.54a8.8,8.8,0,0,0,3.07-7.2A8.71,8.71,0,0,0,455.11,82.66Z"/><path class="cls-4" d="M488.55,120.32a22.8,22.8,0,0,1-8.31-4.25l3.13-7a24.36,24.36,0,0,0,7.34,3.86,26.64,26.64,0,0,0,8.74,1.5q5.43,0,8.11-1.74a5.28,5.28,0,0,0,2.67-4.6,4.42,4.42,0,0,0-1.49-3.44,10.4,10.4,0,0,0-3.8-2.12q-2.29-.77-6.26-1.74a73.11,73.11,0,0,1-9-2.65A14.82,14.82,0,0,1,483.75,94a11.19,11.19,0,0,1-2.47-7.62A13,13,0,0,1,483.47,79a14.86,14.86,0,0,1,6.62-5.26,26.73,26.73,0,0,1,10.82-2,34.64,34.64,0,0,1,8.77,1.12,24.23,24.23,0,0,1,7.45,3.2l-2.86,7a28.22,28.22,0,0,0-6.68-2.86,25,25,0,0,0-6.75-1c-3.58,0-6.23.6-8,1.81a5.59,5.59,0,0,0-2.61,4.8,4.34,4.34,0,0,0,1.5,3.41,10.61,10.61,0,0,0,3.79,2.09q2.29.76,6.26,1.74a67.33,67.33,0,0,1,8.91,2.61,15.32,15.32,0,0,1,5.95,4.14,10.91,10.91,0,0,1,2.47,7.52,12.85,12.85,0,0,1-2.19,7.31A14.87,14.87,0,0,1,510.3,120a27,27,0,0,1-10.85,2A37.49,37.49,0,0,1,488.55,120.32Z"/><path class="cls-4" d="M571.62,113.63v7.59H535.08V72.5h35.57v7.59H544.13V92.75h23.53v7.45H544.13v13.43Z"/></g></g></svg>