<svg xmlns="http://www.w3.org/2000/svg" width="10.023" height="12.167" viewBox="0 0 10.023 12.167"><g transform="translate(0 0)"><path d="M1947.682,1731a4,4,0,0,1-.658.285,2.934,2.934,0,0,1-1.934.042,3.5,3.5,0,0,1-.434-.177c-.159-.077-.276-.136-.353-.18s-.211-.122-.406-.237-.315-.185-.359-.208a7.32,7.32,0,0,1-1.17-.816l-.086-.076a9.688,9.688,0,0,1-.817-.827,14.01,14.01,0,0,1-.957-1.227,11.788,11.788,0,0,1-1.324-2.37,7.216,7.216,0,0,1-.408-1.486c-.007-.05-.032-.186-.073-.409s-.07-.378-.084-.463-.03-.217-.048-.392a3.377,3.377,0,0,1-.019-.468,3.092,3.092,0,0,1,.045-.416,2.974,2.974,0,0,1,.5-1.183c.048-.069.1-.136.152-.2a4,4,0,0,1,.487-.516l.023.059,1.362,3.547.023.062v0a.541.541,0,0,0-.241.288,3.125,3.125,0,0,0,.123.563c.039.1.061.153.064.165a7.581,7.581,0,0,0,2.64,3.77c.009.007.573.416.62.425a.55.55,0,0,0,.359-.132l0,0,.049.043Z" transform="translate(-1938.549 -1719.302)" fill="#195bb6"/><path d="M3935.367,4133.578a2.661,2.661,0,0,1-.177.537,3.056,3.056,0,0,1-.257.506s0,0,0,0a.913.913,0,0,1-.2.215l-.008-.007-2.918-2.537-.049-.044,0,0c.1-.083.208-.173.309-.268a3.847,3.847,0,0,1,.517-.41.659.659,0,0,1,.431-.154.5.5,0,0,1,.214.094c.069.049,1.538,1.3,1.627,1.378q.5.371.523.52A.449.449,0,0,1,3935.367,4133.578Z" transform="translate(-3925.355 -4123.303)" fill="#195bb6"/><path d="M2385.629,1607.608a.656.656,0,0,1-.293.353,3.847,3.847,0,0,1-.561.345c-.125.063-.248.131-.363.2l0-.006-.024-.062-1.383-3.6-.006-.015.049-.028a.887.887,0,0,1,.228-.09,3.152,3.152,0,0,1,.566-.07,2.666,2.666,0,0,1,.566.019.69.69,0,0,1,.089.021.266.266,0,0,1,.071.031.379.379,0,0,1,.126.166,3.323,3.323,0,0,1,.185.5c.04.109.714,1.918.737,2A.511.511,0,0,1,2385.629,1607.608Z" transform="translate(-2381.57 -1604.628)" fill="#195bb6"/></g></svg>