<svg xmlns="http://www.w3.org/2000/svg" viewBox="0 0 1020 550" xmlns:xlink="http://www.w3.org/1999/xlink"><defs><circle id="a" cx="15" cy="15" r="15"/><filter id="b" width="170%" height="170%" x="-35%" y="-25%" filterUnits="objectBoundingBox"><feOffset dy="1" in="SourceAlpha" result="shadowOffsetOuter1"/><feGaussianBlur stdDeviation="1" in="shadowOffsetOuter1" result="shadowBlurOuter1"/><feColorMatrix values="0 0 0 0 0 0 0 0 0 0 0 0 0 0 0 0 0 0 0.08 0" in="shadowBlurOuter1" result="shadowMatrixOuter1"/><feOffset dy="2" in="SourceAlpha" result="shadowOffsetOuter2"/><feGaussianBlur stdDeviation="2.5" in="shadowOffsetOuter2" result="shadowBlurOuter2"/><feColorMatrix values="0 0 0 0 0.196078431 0 0 0 0 0.196078431 0 0 0 0 0.364705882 0 0 0 0.1 0" in="shadowBlurOuter2" result="shadowMatrixOuter2"/><feMerge><feMergeNode in="shadowMatrixOuter1"/><feMergeNode in="shadowMatrixOuter2"/></feMerge></filter><rect id="d" width="460" height="30" rx="4"/><filter id="c" width="104.8%" height="173.3%" x="-2.4%" y="-26.7%" filterUnits="objectBoundingBox"><feOffset dy="1" in="SourceAlpha" result="shadowOffsetOuter1"/><feGaussianBlur stdDeviation="1" in="shadowOffsetOuter1" result="shadowBlurOuter1"/><feColorMatrix values="0 0 0 0 0 0 0 0 0 0 0 0 0 0 0 0 0 0 0.08 0" in="shadowBlurOuter1" result="shadowMatrixOuter1"/><feOffset dy="2" in="SourceAlpha" result="shadowOffsetOuter2"/><feGaussianBlur stdDeviation="2.5" in="shadowOffsetOuter2" result="shadowBlurOuter2"/><feColorMatrix values="0 0 0 0 0.196078431 0 0 0 0 0.196078431 0 0 0 0 0.364705882 0 0 0 0.1 0" in="shadowBlurOuter2" result="shadowMatrixOuter2"/><feMorphology radius=".25" operator="dilate" in="SourceAlpha" result="shadowSpreadOuter3"/><feOffset in="shadowSpreadOuter3" result="shadowOffsetOuter3"/><feColorMatrix values="0 0 0 0 0.196078431 0 0 0 0 0.196078431 0 0 0 0 0.364705882 0 0 0 0.03 0" in="shadowOffsetOuter3" result="shadowMatrixOuter3"/><feMerge><feMergeNode in="shadowMatrixOuter1"/><feMergeNode in="shadowMatrixOuter2"/><feMergeNode in="shadowMatrixOuter3"/></feMerge></filter><circle id="e" cx="15" cy="15" r="15"/><filter id="f" width="170%" height="170%" x="-35%" y="-25%" filterUnits="objectBoundingBox"><feOffset dy="1" in="SourceAlpha" result="shadowOffsetOuter1"/><feGaussianBlur stdDeviation="1" in="shadowOffsetOuter1" result="shadowBlurOuter1"/><feColorMatrix values="0 0 0 0 0 0 0 0 0 0 0 0 0 0 0 0 0 0 0.08 0" in="shadowBlurOuter1" result="shadowMatrixOuter1"/><feOffset dy="2" in="SourceAlpha" result="shadowOffsetOuter2"/><feGaussianBlur stdDeviation="2.5" in="shadowOffsetOuter2" result="shadowBlurOuter2"/><feColorMatrix values="0 0 0 0 0.196078431 0 0 0 0 0.196078431 0 0 0 0 0.364705882 0 0 0 0.1 0" in="shadowBlurOuter2" result="shadowMatrixOuter2"/><feMerge><feMergeNode in="shadowMatrixOuter1"/><feMergeNode in="shadowMatrixOuter2"/></feMerge></filter></defs><g fill="none" fill-rule="evenodd" transform="translate(-246)"><g transform="translate(245 82)"><g transform="translate(5)"><g transform="translate(1 181)"><path fill="#F1F5F9" d="M16.73 6.93a8 8 0 1 1-15.46 4.14 8 8 0 0 1 15.46-4.14z"/><path fill="#AAB7C4" d="M9 17A8 8 0 1 1 9 1a8 8 0 0 1 0 16zm4.86-12.87a6.9 6.9 0 0 0-11.25 7.38l.2-.05a4.97 4.97 0 0 1 8.38-4.65l-4.37 4.36a4.98 4.98 0 1 0 7.04-7.04z"/><path fill="#424770" d="M12.02 8.19a3.13 3.13 0 1 1-6.04 1.62 3.13 3.13 0 0 1 6.04-1.62z"/></g><g transform="translate(2 215)"><path fill="#87BBFD" d="M8 16A8 8 0 1 1 9.34.12V5H11v1.67h4.88A8 8 0 0 1 8 16zm2-6H6.34A.34.34 0 0 1 6 9.64V6.01H3.57a.34.34 0 0 0-.24.1L1.1 8.34a6.9 6.9 0 0 0 6.57 6.57l2.22-2.23c.07-.06.1-.15.1-.24V9.99z"/><path fill="#6772E5" d="M15.89 6.69l-3.21 3.2a.34.34 0 0 1-.24.1H9.99V6.35a.34.34 0 0 0-.33-.34H6V3.56c0-.1.04-.18.1-.24L9.3.12a8 8 0 0 1 6.58 6.57z"/></g><g transform="translate(2 99)"><path fill="#424770" d="M13.44 13.86a8 8 0 1 0-10.89 0C3.6 12.9 5.65 12.22 8 12.22c2.36 0 4.41.67 5.44 1.64zM8 9.23a3.08 3.08 0 1 0 0-6.15 3.08 3.08 0 0 0 0 6.15z"/><path fill="#AAB7C4" d="M13.94 13.35a7.98 7.98 0 0 1-11.88 0c.7-1.3 3.1-2.27 5.94-2.27 2.85 0 5.24.96 5.94 2.27z"/></g><g transform="translate(3 248.5)"><path fill="#424770" d="M12.59 3.16h.33l.34.16c.34.16.74.64.74 1.1v7.06c0 .37-.4.7-.74.86l-5.73 2.77c-.12.06-.25.09-.53.09V9.18H1.66V3.85l7.04-2.6.12-.1 2.48 1.2-.34.83 1.63-.02z"/><path fill="#AAB7C4" d="M7 6.91v8.25s-.55.02-.71-.05L.53 12.36a.95.95 0 0 1-.53-.87V4.2c0-.36.2-.7.53-.86L6.63.46a.88.88 0 0 1 .77 0l1.76.84-6.92 3.3a.47.47 0 0 0-.25.42v2.03L4 8.1v-2.1c0-.18.1-.34.26-.42l6.9-3.31 2 .95c.18.1.34.27.5.43L7 6.9z"/></g><g transform="translate(1.86)"><path fill="#AAB7C4" d="M9.14 14.03v-3.4a.6.6 0 0 0-.61-.6H6.74a.6.6 0 0 0-.6.6v3.4h-4a1 1 0 0 1-1-1v-7a1 1 0 0 1 .56-.9L7.66.24l5.9 4.9a1 1 0 0 1 .58.9v7a1 1 0 0 1-1 1h-4zm-1.5-6.2a1.3 1.3 0 1 0 0-2.6 1.3 1.3 0 0 0 0 2.6z"/><path fill="#424770" d="M7.6 0a.4.4 0 0 0-.3.09L.14 5.87a.4.4 0 0 0-.06.57l.75.93c.14.17.4.2.57.06l6.2-5.02 6.18 5.02a.4.4 0 0 0 .57-.06l.75-.93a.4.4 0 0 0-.06-.57L7.91.1a.4.4 0 0 0-.3-.09z"/></g><g transform="translate(0 35)"><path fill="#AAB7C4" d="M8.67 5.85V8H1c-.55 0-1-.41-1-.92V.92C0 .42.45 0 1 0h12c.55 0 1 .41 1 .92v4.93H8.67zM7 2A2 2 0 1 0 7 6a2 2 0 0 0 0-4z"/><path fill="#424770" d="M17 12H5c-.55 0-1-.41-1-.92V4.92c0-.5.45-.92 1-.92h12c.55 0 1 .41 1 .92v6.16c0 .5-.45.92-1 .92zm-6-6a2 2 0 1 0 0 4 2 2 0 0 0 0-4z"/></g></g><g transform="translate(7 415)"><g transform="translate(0 32)"><path fill="#AAB7C4" d="M2.5 15A1.5 1.5 0 0 1 1 13.5V7.04c.38.14 1.22.22 1.65.26l.04 3.2c0 .28.23.5.51.5h9.69c.28 0 .5-.22.5-.5l-.05-3.2c.82-.04 1.67-.12 1.66-.26v6.46c0 .83-.68 1.5-1.5 1.5h-11z"/><path fill="#424770" d="M15.98 3.55l.01.03v.09l-.02.16a2.76 2.76 0 0 1-2.8 2.44c-1 0-1.88-.5-2.38-1.26A3.5 3.5 0 0 1 8 6.28 3.5 3.5 0 0 1 5.2 5a2.85 2.85 0 0 1-2.38 1.26 2.76 2.76 0 0 1-2.81-2.6v-.09l.01-.03c.02-.12.05-.24.11-.37l.71-1.15.07-.1.4-.64C1.56.78 2.41 0 3.22 0h9.53c.81 0 1.67.78 1.93 1.3l.4.63.06.1.72 1.15c.06.13.09.25.1.37z"/></g><g transform="translate(1)"><polygon fill="#424770" points="10.5 .938 14 7 10.5 13.062 3.5 13.062 0 7 3.5 .938"/><circle cx="7" cy="7" r="3" fill="#F6F9FC"/></g><path fill="#424770" d="M218.37 40.72l-3.47 3.46a.71.71 0 0 0 .01 1 .7.7 0 0 0 1 0l4.6-4.59a.7.7 0 0 0 .2-.5.7.7 0 0 0-.2-.49l-4.6-4.6a.7.7 0 0 0-1 .01.71.71 0 0 0 0 1l3.28 3.29h-7.47c-.4 0-.72.32-.72.71 0 .4.31.71.72.71h7.65z"/></g><g fill="#424770" transform="translate(7 333)"><path d="M16 1.3c0-.72-.59-1.3-1.3-1.3H1.3C.6 0 0 .59 0 1.3V10h16V1.3zM2.35 5.18a.6.6 0 0 0 .49 1.1L5.4 5.11c.3-.14.83-.53.96-1.06-.13-.53-.66-.93-.96-1.06L2.84 1.85a.6.6 0 0 0-.5 1.1l2.85 1.1-2.84 1.12zM16 10.35V10H0v.69C0 11.42.59 12 1.3 12h13.4c.71 0 1.3-.59 1.3-1.3v-.35z"/></g><g transform="translate(7 298)"><circle cx="8" cy="8" r="8" fill="#AAB7C4"/><path stroke="#F1F5F9" stroke-width="1.7" d="M11.62 12.8A5.99 5.99 0 0 0 8 2a6.01 6.01 0 0 0-3.62 10.8" stroke-linecap="round" stroke-linejoin="round"/><path stroke="#F1F5F9" stroke-width="1.7" d="M9.63 10.15A2.7 2.7 0 0 0 8 5.3a2.7 2.7 0 0 0-1.63 4.87" stroke-linecap="round" stroke-linejoin="round"/><circle cx="8" cy="8" r="1.87" fill="#424770"/></g><g transform="translate(7 66)"><path fill="#AAB7C4" d="M5.95 3.81v5.64a1 1 0 0 1-1 1 1 1 0 0 1-1-1V3.83L2.12 5.65a1 1 0 1 1-1.41-1.4L4.24.7a1 1 0 0 1 .72-.3 1 1 0 0 1 .71.3L9.2 4.24A1 1 0 1 1 7.8 5.65L5.95 3.81z"/><path fill="#424770" d="M12.54 13.14V7.5a1 1 0 0 0-1-1 1 1 0 0 0-1 1v5.62L8.7 11.3a1 1 0 1 0-1.42 1.4l3.54 3.54a1 1 0 0 0 1.43 0l3.53-3.53a1 1 0 1 0-1.41-1.41l-1.84 1.84z"/></g><g transform="translate(7 149)"><path fill="#AAB7C4" d="M13.79 7.3h2.18a8 8 0 1 1-2.18-4.81v4.8z"/><path fill="#F6F9FC" d="M12.73 12.24c.23 0 .42.15.42.38 0 .16-.11.32-.23.42a6.76 6.76 0 0 1-4.45 1.78c-3.8 0-6.3-3.08-6.3-6.08 0-2.82 2.32-5.23 4.93-5.23 2.6 0 3.63 1.79 3.63 1.79l1.7 7.07a.42.42 0 0 1 .3-.13z"/><path fill="#424770" d="M16 8c0-.33-.27-.66-.6-.66a.6.6 0 0 0-.6.61 6.35 6.35 0 0 1-1.15 3.4 5.52 5.52 0 0 1-4.42 2.31c-2.54 0-4.4-1.92-4.4-3.97 0-1.43.96-2.39 1.94-2.39.53 0 .83.23.99.44.12.15.35.16.5.02l5.4-5.42A7.98 7.98 0 0 1 16 8z"/></g><g transform="translate(4 365)"><rect width="23" height="14" fill="#AAB7C4" rx="7"/><circle cx="7" cy="7" r="6" fill="#FFFFFF"/></g></g><g transform="translate(249 22)"><path fill="#424770" d="M220.3 18.7a.7.7 0 0 0 .5-.2l4.59-4.6a.7.7 0 0 0 0-1 .71.71 0 0 0-1 0l-4.1 4.09-4.08-4.09a.71.71 0 0 0-1 0 .7.7 0 0 0 0 1l4.59 4.6c.13.14.31.2.5.2z"/><use fill="black" filter="url(#b)" xlink:href="#a"/><use fill="#FFFFFF" xlink:href="#a"/><g transform="translate(7 7)"><path fill="#AAB7C4" d="M2.5 15A1.5 1.5 0 0 1 1 13.5V7.04c.38.14 1.22.22 1.65.26l.04 3.2c0 .28.23.5.51.5h9.69c.28 0 .5-.22.5-.5l-.05-3.2c.82-.04 1.67-.12 1.66-.26v6.46c0 .83-.68 1.5-1.5 1.5h-11z"/><path fill="#424770" d="M15.98 3.55l.01.03v.09l-.02.16a2.76 2.76 0 0 1-2.8 2.44c-1 0-1.88-.5-2.38-1.26A3.5 3.5 0 0 1 8 6.28 3.5 3.5 0 0 1 5.2 5a2.85 2.85 0 0 1-2.38 1.26 2.76 2.76 0 0 1-2.81-2.6v-.09l.01-.03c.02-.12.05-.24.11-.37l.71-1.15.07-.1.4-.64C1.56.78 2.41 0 3.22 0h9.53c.81 0 1.67.78 1.93 1.3l.4.63.06.1.72 1.15c.06.13.09.25.1.37z"/></g></g><g transform="translate(502 22)"><use fill="black" filter="url(#c)" xlink:href="#d"/><use fill="#FFFFFF" xlink:href="#d"/><g fill="#8898AA" transform="translate(10 8.5)"><path d="M5.25 11a5.25 5.25 0 1 1 0-10.5 5.25 5.25 0 0 1 0 10.5zm0-1.23a4.02 4.02 0 1 0 0-8.04 4.02 4.02 0 0 0 0 8.04z"/><path d="M8.54 9.64L9.6 8.58l2.6 2.6c.3.3.3.76 0 1.06-.3.3-.77.3-1.06 0l-2.6-2.6z"/></g></g><g transform="translate(1119 22)"><g transform="translate(113)"><mask id="g" fill="white"><use xlink:href="#e"/></mask><use fill="black" filter="url(#f)" xlink:href="#e"/><use fill="#FFFFFF" xlink:href="#e"/><g mask="url(#g)"><g transform="translate(3 3)"><path fill="#424770" d="M12 14.3a5.08 5.08 0 1 0 0-10.15 5.08 5.08 0 0 0 0 10.16z"/><path fill="#AAB7C4" d="M20.92 20.03a11.97 11.97 0 0 1-17.84 0c1.06-1.97 4.65-3.41 8.92-3.41s7.86 1.44 8.92 3.41z"/></g></g></g><path fill="#424770" d="M80.65 23.2a2.72 2.72 0 0 0 5.3 0h-5.3zm7.92-8.13a13.6 13.6 0 0 0 2.03 5.11c.59.86-.05 1.98-1.13 1.82H77.35c-1.08.16-1.7-.96-1.13-1.82a13.3 13.3 0 0 0 2.1-5.1c.2-1.13.34-2.12.45-2.97A4.18 4.18 0 0 1 83 8.55h.86c2.17 0 4 1.53 4.25 3.56.1.84.24 1.83.45 2.96zm-5.14-6.69a1.05 1.05 0 1 1 0-2.1 1.05 1.05 0 0 1 0 2.1z"/><g transform="translate(39 9)"><path fill="#424770" d="M4.58 0C6.74 0 7.76.85 8.5 2.13v12.29c-.51 0-1.01-.34-1.33-.6C6.14 13 4.11 13 1.95 13h-1a.94.94 0 0 1-.95-.95V.95C0 .42.42 0 .94 0h3.64z"/><path fill="#AAB7C4" d="M12.42 0C10.26 0 9.25.9 8.5 2.1l.01 12.31c.51 0 1.02-.33 1.33-.59 1.03-.82 3.06-.82 5.22-.82h1a.94.94 0 0 0 .95-.95V.95a.94.94 0 0 0-.95-.95h-3.63z"/></g><path fill="#424770" d="M3.27 18.74L.82 17.72s-.4-.14-.55-.64a2.7 2.7 0 0 1 0-1.63c.18-.57.55-.73.55-.73s9.63-4.07 13.65-5.43c.53-.18 1.17-.16 1.18-.16C17.6 9.2 19 12.53 19 16.4c0 3.87-1.62 6.8-3.35 6.84 0 0-.49.1-1.18-.13-2.2-.74-4.68-1.7-7.37-2.8-.11-.04-.3-.12-.34.18v.6c0 .55-.41.83-.92.62l-1.4-.57a1.6 1.6 0 0 1-.93-1.37v-.64c.02-.29-.16-.36-.24-.39zm11.98 2.91c1.37 0 2.48-2.46 2.48-5.5s-1.11-5.5-2.48-5.5c-1.37 0-2.47 2.46-2.47 5.5s1.1 5.5 2.47 5.5z"/></g></g></svg>