<svg width="153" height="44" viewBox="0 0 153 44" fill="none" xmlns="http://www.w3.org/2000/svg" shape-rendering="crispEdges">
<g filter="url(#filter0_i)">
<path d="M21.3054 36.0105L10.6489 29.9988V41.9998L21.3054 36.0105Z" fill="#BDE0F7"/>
<path d="M31.9694 30.0138L21.313 24.0095V36.0106L31.9694 30.0138Z" fill="#204E86"/>
<path d="M10.6489 29.999L21.3054 36.0107V24.0022L10.6489 29.999Z" fill="#337AC8"/>
<path d="M31.9771 18.0129L42.6335 24.0172V12.0161L31.9771 18.0129Z" fill="#204E86"/>
<path d="M21.3203 12.0011L31.9768 18.0128V6.01172L21.3203 12.0011Z" fill="#BDE0F7"/>
<path d="M42.6486 12.0161L31.9922 6.00439V18.0129L42.6486 12.0161Z" fill="#337AC8"/>
<path d="M10.6641 5.96697L21.3205 11.9712V0L10.6641 5.96697Z" fill="#204E86"/>
<path d="M0 11.9862L10.6565 17.9979V5.96704L0 11.9862Z" fill="#BDE0F7"/>
<path d="M21.3205 12.0011L10.6641 5.96704V17.9979L21.3205 12.0011Z" fill="#337AC8"/>
<path d="M31.9692 30.0139L42.6257 36.0256V24.0171L31.9692 30.0139Z" fill="#BDE0F7"/>
</g>
<path d="M57.2524 17.0885H62.6764C63.9024 17.064 65.117 17.3273 66.2215 17.8571C67.2122 18.3329 68.0423 19.085 68.6108 20.0217C69.1686 21.009 69.4616 22.1223 69.4616 23.2547C69.4616 24.387 69.1686 25.5004 68.6108 26.4876C68.0434 27.4269 67.2131 28.1816 66.2215 28.6593C65.1164 29.1867 63.9018 29.4476 62.6764 29.4208H57.2524V17.0885ZM62.57 27.4818C63.3988 27.5033 64.2206 27.3268 64.9665 26.9671C65.6444 26.6488 66.2085 26.1322 66.583 25.4863C66.9499 24.8003 67.1418 24.0352 67.1418 23.2582C67.1418 22.4812 66.9499 21.7161 66.583 21.03C66.2051 20.3921 65.6414 19.8831 64.9665 19.5705C64.2211 19.2086 63.3993 19.0297 62.57 19.0487H59.5567V27.51L62.57 27.4818Z" fill="#161616"/>
<path d="M73.6733 17.0884H75.9776V29.4419H73.6733V17.0884Z" fill="#161616"/>
<path d="M92.3342 17.0884L86.9316 29.4419H84.6627L79.2388 17.1095H81.7345L85.868 26.6215L90.0299 17.1095L92.3342 17.0884Z" fill="#161616"/>
<path d="M104.714 27.4958V29.4419H95.4116V17.0884H104.466V19.0133H97.7088V22.2145H103.7V24.1042H97.7088V27.5028L104.714 27.4958Z" fill="#161616"/>
<path d="M117.171 29.4415L114.64 25.8314C114.479 25.841 114.318 25.841 114.158 25.8314H111.357V29.4415H109.053V17.088H114.158C115.13 17.0642 116.096 17.2444 116.994 17.6169C117.744 17.9261 118.382 18.4548 118.823 19.1328C119.263 19.8337 119.488 20.6476 119.468 21.4738C119.483 22.3261 119.235 23.1624 118.759 23.8712C118.28 24.5621 117.596 25.0871 116.802 25.3731L119.638 29.4204L117.171 29.4415ZM116.334 19.6828C115.669 19.217 114.863 18.993 114.051 19.0482H111.357V23.984H114.087C114.9 24.045 115.709 23.8177 116.37 23.3424C116.632 23.1196 116.839 22.8395 116.975 22.5238C117.11 22.2082 117.17 21.8657 117.15 21.5232C117.174 21.1696 117.113 20.8153 116.971 20.4901C116.829 20.165 116.611 19.8784 116.334 19.6546V19.6828Z" fill="#161616"/>
<path d="M124.85 29.188C124.074 28.9801 123.35 28.6152 122.723 28.1162L123.524 26.3323C124.096 26.7718 124.742 27.1083 125.431 27.3265C126.144 27.5786 126.894 27.7074 127.65 27.7072C128.357 27.7454 129.061 27.5893 129.685 27.256C129.897 27.1427 130.075 26.975 130.199 26.7704C130.324 26.5658 130.391 26.3317 130.394 26.0925C130.398 25.9279 130.366 25.7644 130.3 25.6134C130.233 25.4625 130.135 25.3276 130.011 25.2182C129.732 24.9728 129.403 24.79 129.047 24.6823C128.657 24.5483 128.125 24.4073 127.452 24.2381C126.671 24.0676 125.904 23.8438 125.155 23.5682C124.574 23.3502 124.057 22.9915 123.651 22.5247C123.207 21.981 122.982 21.2923 123.02 20.5927C123.015 19.9303 123.21 19.2817 123.581 18.7312C123.999 18.1358 124.583 17.675 125.261 17.4056C126.136 17.053 127.075 16.8849 128.019 16.912C128.773 16.9106 129.523 17.0054 130.252 17.194C130.924 17.3578 131.564 17.6319 132.145 18.0049L131.436 19.7818C130.904 19.4768 130.334 19.2399 129.742 19.0767C129.181 18.9173 128.602 18.8343 128.019 18.8299C127.313 18.7819 126.607 18.9413 125.991 19.2882C125.785 19.4165 125.615 19.5954 125.498 19.8079C125.382 20.0203 125.322 20.259 125.325 20.501C125.321 20.6636 125.354 20.8249 125.42 20.9736C125.486 21.1223 125.584 21.2546 125.708 21.3612C125.989 21.6018 126.317 21.7819 126.672 21.8901C127.062 22.024 127.594 22.1651 128.267 22.3343C129.038 22.4991 129.796 22.7183 130.536 22.99C131.118 23.2166 131.638 23.5766 132.053 24.0407C132.494 24.5747 132.717 25.2544 132.677 25.9445C132.685 26.6018 132.492 27.246 132.124 27.7918C131.687 28.3864 131.086 28.8421 130.394 29.1033C129.518 29.4504 128.579 29.616 127.636 29.5899C126.692 29.5958 125.753 29.4603 124.85 29.188Z" fill="#161616"/>
<path d="M145.993 27.4958V29.4419H136.69V17.0884H145.745V19.0133H138.995V22.2145H144.986V24.1042H138.995V27.5028L145.993 27.4958Z" fill="#161616"/>
<defs>
<filter id="filter0_i" x="0" y="0" width="42.6486" height="44.9998" filterUnits="userSpaceOnUse" color-interpolation-filters="sRGB">
<feFlood flood-opacity="0" result="BackgroundImageFix"/>
<feBlend mode="normal" in="SourceGraphic" in2="BackgroundImageFix" result="shape"/>
<feColorMatrix in="SourceAlpha" type="matrix" values="0 0 0 0 0 0 0 0 0 0 0 0 0 0 0 0 0 0 127 0" result="hardAlpha"/>
<feOffset dy="3"/>
<feGaussianBlur stdDeviation="2"/>
<feComposite in2="hardAlpha" operator="arithmetic" k2="-1" k3="1"/>
<feColorMatrix type="matrix" values="0 0 0 0 0 0 0 0 0 0 0 0 0 0 0 0 0 0 0.15 0"/>
<feBlend mode="normal" in2="shape" result="effect1_innerShadow"/>
</filter>
</defs>
</svg>
