<svg xmlns="http://www.w3.org/2000/svg" viewBox="0 0 171.85 172.74"><defs><style>.cls-1{fill:#fff;}</style></defs><title>Asset 4</title><g data-name="Layer 2"><g  data-name="Layer 1"><polygon class="cls-1" points="42.41 128.32 80.86 150.56 42.38 172.74 42.41 128.32"/><polygon class="cls-1" points="86.89 102.68 125.33 124.92 86.86 147.1 86.89 102.68"/><polygon class="cls-1" points="44.41 124.86 82.89 102.68 82.86 147.09 44.41 124.86"/><polygon class="cls-1" points="133.37 73.58 171.85 51.4 171.82 95.81 133.37 73.58"/><polygon class="cls-1" points="88.92 47.88 127.4 25.7 127.37 70.11 88.92 47.88"/><polygon class="cls-1" points="131.4 25.7 169.85 47.94 131.37 70.11 131.4 25.7"/><polygon class="cls-1" points="44.48 22.18 82.96 0 82.93 44.41 44.48 22.18"/><polygon class="cls-1" points="0 47.82 38.48 25.64 38.45 70.05 0 47.82"/><polygon class="cls-1" points="42.48 25.64 80.92 47.88 42.45 70.06 42.48 25.64"/><polygon class="cls-1" points="133.34 124.92 171.81 102.74 171.78 147.15 133.34 124.92"/></g></g></svg>