<svg width="180" height="55" viewBox="0 0 197 55" fill="none" xmlns="http://www.w3.org/2000/svg" shape-rendering="crispEdges">
<g filter="url(#filter0_i)">
<path d="M27.8499 47.0726L13.9199 39.2141V54.9018L27.8499 47.0726Z" fill="#BDE0F7"/>
<path d="M41.7899 39.2337L27.8599 31.385V47.0727L41.7899 39.2337Z" fill="#204E86"/>
<path d="M13.9199 39.2143L27.8499 47.0728V31.3754L13.9199 39.2143Z" fill="#337AC8"/>
<path d="M41.7998 23.5462L55.7298 31.3949V15.7073L41.7998 23.5462Z" fill="#204E86"/>
<path d="M27.8701 15.6876L41.8001 23.5461V7.8584L27.8701 15.6876Z" fill="#BDE0F7"/>
<path d="M55.7498 15.7073L41.8198 7.84888V23.5463L55.7498 15.7073Z" fill="#337AC8"/>
<path d="M13.9399 7.79996L27.8699 15.6487V0L13.9399 7.79996Z" fill="#204E86"/>
<path d="M0 15.6683L13.93 23.5267V7.80005L0 15.6683Z" fill="#BDE0F7"/>
<path d="M27.8699 15.6878L13.9399 7.80005V23.5267L27.8699 15.6878Z" fill="#337AC8"/>
<path d="M41.79 39.2339L55.72 47.0923V31.3949L41.79 39.2339Z" fill="#BDE0F7"/>
</g>
<path d="M71.75 19.162H79.4C81.1292 19.1274 82.8422 19.4988 84.4 20.246C85.7973 20.9171 86.9682 21.9779 87.77 23.2991C88.5567 24.6915 88.9699 26.2617 88.9699 27.8589C88.9699 29.456 88.5567 31.0262 87.77 32.4186C86.9697 33.7435 85.7987 34.8079 84.4 35.4817C82.8414 36.2254 81.1284 36.5934 79.4 36.5557H71.75V19.162ZM79.25 33.8209C80.4188 33.8512 81.5779 33.6022 82.63 33.0949C83.5862 32.646 84.3817 31.9173 84.91 31.0064C85.4274 30.0389 85.698 28.9597 85.698 27.8638C85.698 26.7679 85.4274 25.6888 84.91 24.7212C84.3769 23.8214 83.5819 23.1036 82.63 22.6626C81.5787 22.1522 80.4196 21.8999 79.25 21.9267H75V33.8606L79.25 33.8209Z" fill="#161616"/>
<path d="M94.9102 19.1619H98.1601V36.5854H94.9102V19.1619Z" fill="#161616"/>
<path d="M121.23 19.1619L113.61 36.5854H110.41L102.76 19.1917H106.28L112.11 32.6074L117.98 19.1917L121.23 19.1619Z" fill="#161616"/>
<path d="M138.69 33.8406V36.5854H125.57V19.1619H138.34V21.8768H128.81V26.3918H137.26V29.0571H128.81V33.8506L138.69 33.8406Z" fill="#161616"/>
<path d="M156.26 36.5848L152.69 31.493C152.464 31.5066 152.237 31.5066 152.01 31.493H148.06V36.5848H144.81V19.1613H152.01C153.381 19.1276 154.744 19.3818 156.01 19.9072C157.068 20.3433 157.968 21.089 158.59 22.0453C159.211 23.0339 159.528 24.1817 159.5 25.347C159.52 26.5491 159.172 27.7287 158.5 28.7283C157.824 29.7028 156.859 30.4433 155.74 30.8466L159.74 36.555L156.26 36.5848ZM155.08 22.821C154.142 22.1641 153.005 21.848 151.86 21.926H148.06V28.8874H151.91C153.057 28.9735 154.198 28.6529 155.13 27.9824C155.5 27.6683 155.792 27.2732 155.983 26.828C156.174 26.3829 156.258 25.8998 156.23 25.4167C156.265 24.9179 156.178 24.4182 155.978 23.9596C155.778 23.501 155.47 23.0969 155.08 22.7812V22.821Z" fill="#161616"/>
<path d="M167.09 36.2273C165.996 35.9342 164.975 35.4195 164.09 34.7157L165.22 32.1996C166.027 32.8196 166.938 33.2941 167.91 33.6018C168.915 33.9575 169.973 34.1391 171.04 34.1389C172.037 34.1927 173.03 33.9725 173.91 33.5024C174.209 33.3426 174.459 33.1061 174.635 32.8176C174.811 32.529 174.906 32.1989 174.91 31.8615C174.915 31.6293 174.87 31.3987 174.776 31.1858C174.683 30.9728 174.544 30.7826 174.37 30.6283C173.976 30.2822 173.512 30.0244 173.01 29.8725C172.46 29.6835 171.71 29.4846 170.76 29.246C169.659 29.0055 168.577 28.6898 167.52 28.3012C166.701 27.9936 165.972 27.4877 165.4 26.8293C164.773 26.0625 164.456 25.0911 164.51 24.1044C164.502 23.1703 164.778 22.2554 165.3 21.479C165.89 20.6392 166.713 19.9893 167.67 19.6093C168.904 19.112 170.229 18.8749 171.56 18.9132C172.623 18.9112 173.681 19.0449 174.71 19.311C175.658 19.542 176.56 19.9285 177.38 20.4546L176.38 22.9608C175.628 22.5306 174.825 22.1965 173.99 21.9663C173.199 21.7415 172.382 21.6244 171.56 21.6182C170.563 21.5505 169.569 21.7753 168.7 22.2646C168.409 22.4455 168.169 22.6979 168.005 22.9975C167.84 23.2971 167.756 23.6338 167.76 23.9751C167.755 24.2044 167.8 24.432 167.894 24.6417C167.987 24.8514 168.126 25.038 168.3 25.1884C168.697 25.5277 169.16 25.7817 169.66 25.9343C170.21 26.1233 170.96 26.3221 171.91 26.5608C172.997 26.7933 174.067 27.1024 175.11 27.4857C175.93 27.8053 176.664 28.313 177.25 28.9675C177.872 29.7208 178.186 30.6794 178.13 31.6526C178.141 32.5797 177.869 33.4884 177.35 34.2582C176.734 35.0968 175.886 35.7395 174.91 36.108C173.674 36.5975 172.35 36.831 171.02 36.7942C169.689 36.8025 168.364 36.6114 167.09 36.2273Z" fill="#161616"/>
<path d="M196.91 33.8406V36.5854H183.79V19.1619H196.56V21.8768H187.04V26.3918H195.49V29.0571H187.04V33.8506L196.91 33.8406Z" fill="#161616"/>
<defs>
<filter id="filter0_i" x="0" y="0" width="55.7498" height="57.9018" filterUnits="userSpaceOnUse" color-interpolation-filters="sRGB">
<feFlood flood-opacity="0" result="BackgroundImageFix"/>
<feBlend mode="normal" in="SourceGraphic" in2="BackgroundImageFix" result="shape"/>
<feColorMatrix in="SourceAlpha" type="matrix" values="0 0 0 0 0 0 0 0 0 0 0 0 0 0 0 0 0 0 127 0" result="hardAlpha"/>
<feOffset dy="3"/>
<feGaussianBlur stdDeviation="2"/>
<feComposite in2="hardAlpha" operator="arithmetic" k2="-1" k3="1"/>
<feColorMatrix type="matrix" values="0 0 0 0 0 0 0 0 0 0 0 0 0 0 0 0 0 0 0.15 0"/>
<feBlend mode="normal" in2="shape" result="effect1_innerShadow"/>
</filter>
</defs>
</svg>
