<svg xmlns="http://www.w3.org/2000/svg" width="30px" height="30px"><path d="M15 30c-1.6 0-3.1-.2-4.5-.7V22h-8v1.3C.9 20.8 0 17.9 0 15 0 7.9 4.9 2 11.5.4v2.1h9V1C26.1 3.2 30 8.6 30 15c0 8.3-6.7 15-15 15z" fill="#beb0f4"/><path d="M28.5 15h-8v11H11v-.1 3.6c-4-1.1-7.3-3.8-9.3-7.5 1.3-4.1 5-6.8 9.3-7V.5c1.3-.3 2.7-.5 4-.5 2.1 0 4.2.4 6 1.2v5c0 3.8 2.8 6.8 6.4 7.3.6.1 1.1.8 1.1 1.5z" fill="#7356b6"/><path d="M28.5 15c0 .7-.5 1.3-1.1 1.4-3.6.6-6.4 3.6-6.4 7.3V27c-1.9.9-3.9 1.4-6 1.4-1.4 0-2.7-.2-4-.6V25c0-4.4 3.6-8.1 7.8-8.6.7-.1 1.2-.7 1.2-1.4h8.5zm-26-5.2C4.1 6.1 7.2 3.3 11 2.1V5c0 4.4 3.6 8 7.8 8.6.7.1 1.2.7 1.2 1.4h-8.8c-3.7 0-7-2.1-8.7-5.2z" fill="#FFF"/></svg>