<svg xmlns="http://www.w3.org/2000/svg" width="23" height="23" viewBox="0 0 23 23"><g fill="none" fill-rule="evenodd"><path fill="#24b47e" d="M11.5,23 C5.14872538,23 7.77806814e-16,17.8512746 0,11.5 C-7.77806814e-16,5.14872538 5.14872538,1.16671022e-15 11.5,0 C17.8512746,3.88903407e-16 23,5.14872538 23,11.5 C23,17.8512746 17.8512746,23 11.5,23 Z"></path><path fill="#fff" d="M17.0468285,6.28269446 L9.74682854,13.7526945 L7.76682854,11.5126945 C6.89682854,10.7626945 5.53682854,11.6426945 6.15682854,12.7626945 L8.50682854,16.7426945 C8.87682854,17.2426945 9.74682854,17.7426945 10.6068285,16.7426945 C10.9768285,16.2426945 18.0368285,7.40269446 18.0368285,7.40269446 C18.9068285,6.40269446 17.7868285,5.53269446 17.0468285,6.28269446 Z"></path></g></svg>