<svg viewBox="0 0 30 30" width="30" height="30" xmlns="http://www.w3.org/2000/svg"><g fill="none" fill-rule="evenodd"><path d="M30 15c0 8.284-6.716 15-15 15-8.284 0-15-6.716-15-15C0 6.716 6.716 0 15 0c8.284 0 15 6.716 15 15" fill="#74E4A2"/><path d="M21.928 3.124a13.708 13.708 0 0 0-7.912-1.84c-6.418.45-11.76 5.43-12.635 11.803a13.807 13.807 0 0 0 .34 5.482c.108.401.524.634.917.505a.72.72 0 0 0 .487-.702 9.998 9.998 0 0 1 8.618-10.026 9.982 9.982 0 0 1 6.382 1.242c1.292.746 1.384 1.965 1.875 3.456.9 2.734.76 5.747-1.723 7.279a.674.674 0 0 0-.245.87.68.68 0 0 0 .73.377 9.973 9.973 0 0 0 6.773-4.817c2.748-4.76 1.14-10.85-3.607-13.629" fill="#FFF"/><path d="M21.25 15a6.25 6.25 0 1 1-12.5 0 6.25 6.25 0 0 1 12.5 0" fill="#159570"/></g></svg>