<?xml version="1.0" encoding="utf-8"?>
<!-- Generator: Adobe Illustrator 27.3.1, SVG Export Plug-In . SVG Version: 6.00 Build 0)  -->
<svg version="1.1" id="Layer_1" xmlns="http://www.w3.org/2000/svg" xmlns:xlink="http://www.w3.org/1999/xlink" x="0px" y="0px"
	 viewBox="0 0 424 144" style="enable-background:new 0 0 424 144;" xml:space="preserve">
<style type="text/css">
	.st0{clip-path:url(#SVGID_00000152262408188837724880000001757624282789120926_);}
	.st1{fill:#D8D8D8;stroke:#D8D8D8;stroke-width:0.5;stroke-miterlimit:10;}
	.st2{fill:#D8D8D8;}
	.st3{fill:#C4C4C4;}
	.st4{fill-rule:evenodd;clip-rule:evenodd;fill:#D8D8D8;}
</style>
<g>
	<defs>
		<rect id="SVGID_1_" x="376.8" y="105.6" width="46.9" height="34.3"/>
	</defs>
	<clipPath id="SVGID_00000023995296565716848970000016919390031764902019_">
		<use xlink:href="#SVGID_1_"  style="overflow:visible;"/>
	</clipPath>
	<g style="clip-path:url(#SVGID_00000023995296565716848970000016919390031764902019_);">
		<path class="st1" d="M385.4,120.1l-0.6-0.9c-0.3,0.2-0.5,0.3-0.8,0.4c-0.2,0.1-0.5,0.2-0.8,0.3c-0.3,0.1-0.6,0.2-0.9,0.2
			c-0.3,0.1-0.7,0.1-1,0.1c-0.6,0-1.1-0.1-1.7-0.2c-0.5-0.1-1-0.4-1.4-0.7c-0.4-0.3-0.7-0.8-0.9-1.2c-0.2-0.6-0.4-1.2-0.3-1.8
			c0-0.8,0.2-1.6,0.7-2.2c0.5-0.8,1.2-1.4,2-1.8c-0.4-0.5-0.7-1-1-1.6c-0.3-0.5-0.4-1.1-0.4-1.6c0-0.5,0.1-0.9,0.3-1.3
			c0.2-0.4,0.5-0.8,0.8-1.1c0.4-0.3,0.8-0.5,1.2-0.7c0.5-0.2,1.1-0.2,1.6-0.2c0.6,0,1.1,0.1,1.7,0.2c0.5,0.1,0.9,0.4,1.3,0.7
			c0.3,0.3,0.6,0.6,0.8,1c0.2,0.4,0.3,0.9,0.3,1.4c0,0.7-0.2,1.4-0.6,1.9c-0.5,0.7-1.1,1.2-1.8,1.7l1.6,2.2c0.1-0.2,0.3-0.5,0.3-0.8
			c0.1-0.3,0.1-0.6,0.1-0.9h3.1c0,0.8-0.2,1.5-0.4,2.3c-0.2,0.7-0.7,1.4-1.2,1.9l1.9,2.6L385.4,120.1z M380.7,115.3
			c-0.1,0.2-0.2,0.5-0.2,0.7c0,0.2,0,0.4,0.1,0.6c0.1,0.2,0.2,0.4,0.3,0.5c0.1,0.1,0.3,0.2,0.5,0.3c0.2,0.1,0.4,0.1,0.6,0.1
			c0.2,0,0.4-0.1,0.7-0.2c0.2-0.1,0.4-0.2,0.6-0.3l-1.9-2.6C381.1,114.7,380.8,115,380.7,115.3z M381.5,109.6c0.2,0.4,0.4,0.7,0.7,1
			c0.3-0.3,0.6-0.6,0.9-1c0.1-0.2,0.2-0.5,0.3-0.7c0-0.1,0-0.3-0.1-0.4c-0.1-0.1-0.1-0.2-0.2-0.3c-0.2-0.2-0.5-0.3-0.7-0.3
			c-0.3,0-0.5,0.1-0.8,0.3c-0.1,0.1-0.2,0.2-0.2,0.3c-0.1,0.1-0.1,0.3-0.1,0.4C381.3,109.1,381.3,109.4,381.5,109.6L381.5,109.6z"/>
		<path class="st1" d="M382.9,125.3l1.5,8.4l1.5-8.4h5.2v14.1h-3.4v-10.6h0l-1.9,10.6h-2.6l-1.9-10.5v10.6h-3.5v-14.1L382.9,125.3z"
			/>
		<path class="st1" d="M392.6,129c0.1-0.8,0.4-1.6,0.9-2.3c0.4-0.6,0.9-1,1.6-1.3c0.8-0.3,1.6-0.4,2.4-0.4c0.8,0,1.6,0.1,2.4,0.4
			c0.6,0.3,1.2,0.7,1.5,1.3c0.4,0.7,0.7,1.5,0.9,2.3c0.2,1.1,0.3,2.2,0.3,3.4c0,1.1-0.1,2.3-0.3,3.4c-0.1,0.8-0.4,1.6-0.9,2.3
			c-0.4,0.6-0.9,1-1.6,1.3c-0.8,0.3-1.6,0.4-2.4,0.4c-0.8,0-1.6-0.1-2.4-0.4c-0.6-0.2-1.2-0.7-1.5-1.2c-0.4-0.7-0.7-1.5-0.9-2.3
			c-0.2-1.1-0.3-2.2-0.3-3.4C392.3,131.3,392.4,130.1,392.6,129z M396.1,134.8c0,0.5,0.1,1,0.2,1.5c0,0.3,0.2,0.6,0.4,0.8
			c0.2,0.1,0.4,0.2,0.7,0.2c0.2,0,0.5-0.1,0.7-0.2c0.2-0.2,0.3-0.5,0.4-0.8c0.1-0.5,0.2-1,0.2-1.5c0-0.6,0-1.4,0-2.4
			c0-0.9,0-1.8,0-2.4c0-0.5-0.1-1-0.2-1.5c0-0.3-0.2-0.6-0.4-0.8c-0.2-0.1-0.4-0.2-0.7-0.2c-0.2,0-0.5,0.1-0.7,0.2
			c-0.2,0.2-0.3,0.5-0.4,0.8c-0.1,0.5-0.2,1-0.2,1.5c0,0.6,0,1.4,0,2.4C396.1,133.3,396.1,134.1,396.1,134.8L396.1,134.8z"/>
		<path class="st1" d="M409.4,125.3c0.6,0,1.2,0.1,1.8,0.3c0.5,0.2,0.9,0.4,1.2,0.8c0.3,0.3,0.6,0.8,0.7,1.2c0.1,0.5,0.2,1,0.2,1.5
			c0,0.8-0.2,1.6-0.6,2.3c-0.2,0.3-0.5,0.6-0.8,0.7c-0.3,0.2-0.7,0.3-1,0.3v0c0.4,0,0.7,0.1,1,0.2s0.6,0.4,0.8,0.7
			c0.4,0.7,0.5,1.5,0.5,2.2v1.8c0,0.2,0,0.4,0,0.6s0,0.3,0.1,0.5c0,0.1,0.1,0.2,0.1,0.3l0.2,0.2c0.1,0.1,0.2,0.2,0.3,0.2v0.2h-3.9
			c-0.1-0.2-0.2-0.4-0.2-0.7c0-0.2-0.1-0.5-0.1-0.8c0-0.2,0-0.5,0-0.7c0-0.2,0-0.4,0-0.6v-0.9c0-0.3,0-0.7-0.1-1
			c0-0.2-0.1-0.4-0.2-0.6c-0.1-0.1-0.2-0.3-0.4-0.3c-0.2-0.1-0.4-0.1-0.6-0.1h-1v5.7h-3.7v-14.1L409.4,125.3z M408.1,131.3
			c0.2,0,0.4,0,0.6-0.1c0.2-0.1,0.4-0.2,0.5-0.4c0.3-0.3,0.4-0.8,0.4-1.2c0-0.5-0.1-0.9-0.4-1.3c-0.2-0.1-0.4-0.2-0.6-0.3
			c-0.2-0.1-0.4-0.1-0.6-0.1h-0.7v3.3H408.1z"/>
		<path class="st1" d="M423.3,125.3v3h-4.7v2.4h4.4v2.9h-4.4v2.8h4.8v3H415v-14.1L423.3,125.3z"/>
	</g>
</g>
<path class="st2" d="M158.2,120.7v17.1h6.1v-3.9l1.7-2.1l5.1,9.5h6.6l-6.4-12.4h-2.5l6.8-8.1h-6.4l-4.9,5.4v-5.4H158.2L158.2,120.7z
	 M230.5,112v-11.8h-6.1V112h-8v-11.8h-6.1V112H199c-1.9,0-3.2-1.6-3.2-3.7c0-2,1.1-3.8,3.2-3.8h3.5c1.4,0,1.4,1.7,0,1.7H197
	c-0.1,2.8,1.6,4,3.4,4h3.4c5.1,0,5.3-3.8,5.3-5.3c0-1.5-1.9-4.6-5.1-4.6h-5.5c-4.2,0-8.2,3.7-8.2,8.3c0,4.2,2.9,8.8,8.2,8.8h5.8
	c3.3,0,5.2-2.4,6.1-4c0.2,2.2,2.1,4,4.4,4h5.3c2.4,0,4.4-1.9,4.4-4.3c0,2.4,2,4.3,4.4,4.3h5.3c2.4,0,4.4-2,4.4-4.4l0-0.9L230.5,112
	L230.5,112L230.5,112z M177.5,114.9c1,1.8,2.2,2.4,4.1,2.4h2.9c2.4,0,4.4-2,4.4-4.4v-12.7h-2.2c-2.9,0-3.9,2.7-3.9,4.6v5.9
	c0,1.7-2.3,1.7-2.3,0v-10.4h-6.1v10.6c0,1.6-2.3,1.5-2.3,0v-10.6h-6.1v12.7c0,2.4,2,4.4,4.4,4.4h2.8
	C175.3,117.3,176.6,116.6,177.5,114.9L177.5,114.9z M234.8,120.7H222c-1.4,0-2.6,1.2-2.6,2.6v11.9c0,1.4,1.2,2.6,2.6,2.6h12.8
	c1.4,0,2.6-1.2,2.6-2.6v-11.9C237.4,121.9,236.2,120.7,234.8,120.7z M222.9,127.2c0-1.9,1.6-4.3,4-4.3h3.1v2.4h-3.2v3.7h3.2v2.5H227
	C224.3,131.6,222.9,129.1,222.9,127.2L222.9,127.2z M231,134.6h-3.6v-2.4h3.2v-3.9h-3.2V126h3.9c1.6,0,2.6,0.9,2.5,2
	c0,1.2-0.5,1.8-1.2,2.2c0.6,0.3,1.4,0.9,1.4,2.3C234.1,134,232.5,134.6,231,134.6L231,134.6z M157.8,100.2h-9.6V112h-8v-11.8h-6.1
	v12.7c0,2.4,2,4.4,4.4,4.4h5.3c2.4,0,4.3-1.9,4.4-4.2v4.2h9.7c2.6,0,7-3.4,7-8.7C164.9,103.2,159.9,100.2,157.8,100.2z M156.2,112
	h-2V105h2c2,0,3.2,1.2,3.2,3.7S158.1,112,156.2,112L156.2,112z"/>
<path class="st2" d="M209.5,130.1c3.7-0.6,4.1-3.1,4.1-4.7c0-1.7-1.6-4.6-4.7-4.6h-13.4v11.8H183c-1.9,0-3.2-1.6-3.2-3.7
	s1.1-3.8,3.2-3.8h3.6c1.2,0,1.2,1.7,0.1,1.7H181c-0.1,2.8,1.6,4,3.4,4h3.9c5.1,0,5.6-3.8,5.6-5.3s-1.8-4.6-5-4.6h-6.4
	c-4.2,0-8.2,3.7-8.2,8.3c0,4.2,2.9,8.8,8.2,8.8h6.9c3.2,0,5.2-2.3,6.1-3.9v3.9h6.1v-9.1l5.7,9.1h6.7L209.5,130.1L209.5,130.1z
	 M207.1,126.6h-5.5V125h5.4C208.1,125,208.1,126.6,207.1,126.6z M124.1,100.2c-4.8,0-8.6,3.8-8.6,8.6c0,1.1,0.2,2.2,0.6,3.2h-8.4
	c-1.2,0-3-1.1-3-3.2c0-2.1,1.5-4,3.1-4h6.7v-4.6h-7.4c-2.9,0-8.1,2.5-8.1,8.8c0,6.4,6.4,8.2,8.1,8.2h3.9c1.2,0,4.6-1.6,5.6-4.2
	c1.5,2.5,4.3,4.2,7.4,4.2c4.8,0,8.6-3.9,8.6-8.6C132.8,104.1,128.9,100.2,124.1,100.2z M124.2,112.1c-1.8,0-3.3-1.5-3.3-3.3
	c0-1.8,1.5-3.3,3.3-3.3c1.8,0,3.3,1.5,3.3,3.3C127.5,110.6,126,112.1,124.2,112.1L124.2,112.1z M150.2,120.7v8.8l-6.7-8.8h-5.5V137
	l-6.9-16.3h-2.7c-2.6,0-3.6,2.1-4,3.4l-5.8,13.7h5.4l1.8-4c1.1,4.4,5.5,4,5.5,4h13.2v-7.3l4.2,5.7c1.5,1.8,2.9,1.6,4,1.6h3.7v-17.1
	H150.2z M126.1,133l2-4.6l1.7,4.6H126.1L126.1,133z M116.4,129.1c1-0.6,1.4-1.6,1.3-3.6s-1.3-4.8-5.1-4.8h-11.4v17.1h12.5
	C118.6,137.8,120.4,132.1,116.4,129.1L116.4,129.1z M111.5,132.6h-3.9v-1.9h3.9C112.8,130.7,112.8,132.6,111.5,132.6z M111.5,126.9
	h-3.9v-1.8h3.9C112.8,125.1,112.8,126.9,111.5,126.9z"/>
<g>
	<path class="st2" d="M47.6,129.9c-1.8,0-3.6,0-5.3,0c-1.1,0-2.2,0-3.3,0c-0.2,0-0.4-0.1-0.5-0.2c-3.5-3.5-7-7-10.5-10.5
		c-4.4-4.5-8.6-9.1-12.7-14c-2.8-3.4-5.6-6.8-8-10.5c-0.9-1.5-1.8-3-2.4-4.6c-0.1-0.3-0.1-0.5,0.1-0.7c2.3-2.3,5.1-3.8,8.3-4.2
		c0.6-0.1,1.3-0.1,2-0.2c0.2,0,0.4-0.1,0.5-0.2c2.4-2,5.1-3.2,8.2-3.9c1.9-0.4,3.7-0.6,5.6-0.5c0.4,0,0.9,0,1.3,0.1
		c0.4,0.1,0.6,0,0.9-0.2c2.2-1.1,4.5-1.7,7-2.1c1.8-0.3,3.6-0.5,5.4-0.4c2.4,0.1,4.7,0.4,7,0.9c1.8,0.4,3.5,0.9,5.1,1.7
		c0.1,0.1,0.3,0.1,0.5,0.1c4.7-0.3,9.2,0.4,13.2,2.9c0.7,0.4,1.3,0.9,2,1.4c0.1,0.1,0.3,0.2,0.5,0.2c3.7,0,6.9,1.4,9.7,3.8
		c1,0.9,1,0.9,0.5,2c-1,2.2-2.2,4.1-3.6,6c-2.5,3.5-5.1,6.8-8,10c-3.3,3.7-6.5,7.3-9.9,10.8c-3.7,3.9-7.5,7.6-11.2,11.4
		c-0.6,0.6-1.1,0.9-2,0.8C47.8,129.9,47.7,130,47.6,129.9C47.6,130,47.6,129.9,47.6,129.9z"/>
	<path class="st2" d="M84.7,59.4c-0.4-0.5-0.7-0.9-1.1-1.3c-2.2-2.5-4.9-4-8.2-4.5c-1.2-0.2-2.5-0.1-3.8-0.2c-0.1,0-0.3-0.1-0.4-0.2
		c-2.2-2.1-4.9-3.3-7.8-3.9c-2.3-0.5-4.7-0.5-7-0.2c-0.4,0.1-0.7,0.1-1.1,0.2c-0.1,0-0.3,0-0.4-0.1c-1-0.8-2.1-1.3-3.3-1.7
		c-2.8-0.9-5.6-1.5-8.5-1.4c-3.3,0.2-6.5,0.8-9.5,2.4c-0.3,0.2-0.6,0.4-1,0.6c-0.1,0.1-0.3,0.2-0.5,0.1c-1.9-0.3-3.9-0.5-5.8-0.3
		c-3.8,0.4-7.2,1.7-10,4.2c-0.1,0.1-0.3,0.2-0.5,0.2c-4.8-0.3-8.9,1.2-12.1,4.9c-0.3,0.3-0.5,0.6-0.9,0.9c0.2-0.6,0.4-1.2,0.6-1.8
		c2-5.5,5.2-10.3,9.5-14.3c1.6-1.5,3.3-2.8,5.3-3.6c0.3-0.1,0.6-0.2,0.9-0.3c0.1-0.1,0.3-0.1,0.4-0.2c2.5-2.4,5.5-3.9,8.9-4.6
		c1.9-0.4,3.8-0.5,5.8-0.3c0.1,0,0.3,0,0.4-0.1c1.5-1.1,3.2-1.7,5-2c2.5-0.4,5-0.4,7.5-0.1c2,0.3,3.9,0.9,5.6,2.1
		c0.1,0.1,0.2,0.1,0.3,0.1c2.2-0.2,4.3-0.1,6.4,0.4c3,0.7,5.7,2.1,8,4.2c0.3,0.3,0.6,0.5,1.1,0.6c1.5,0.4,2.8,1.3,4,2.3
		c3.3,2.5,5.9,5.6,8.1,9.1c1.6,2.6,2.9,5.3,3.8,8.1C84.7,59.1,84.7,59.2,84.7,59.4z"/>
	<path class="st2" d="M46.4,65.9c-0.9-1.2-1.8-2.4-2.8-3.6c0,0-0.1,0-0.1,0c0,0.1,0,0.2,0,0.4c0,1.9,0,3.8,0,5.6c0,0.3,0,0.6,0,0.9
		c0,0.1-0.1,0.2-0.2,0.2c-0.8,0-1.5,0-2.3,0c0-0.7,0-1.3,0-2c0-1.4,0-2.9,0-4.3c0-0.1,0-0.3,0.1-0.4c0.8-1.6,1.7-3.3,2.6-4.9
		c0,0,0-0.1,0.1-0.1c0.9,1.3,1.8,2.5,2.7,3.8c0.4-0.6,0.9-1.2,1.3-1.7c0.4-0.6,0.8-1.1,1.3-1.7c0.1-0.1,0.3-0.2,0.4-0.2
		c0.8,0,1.7,0.1,2.6,0.1c-0.1,3.9-0.1,7.8-0.2,11.7c-0.9-0.1-1.7-0.1-2.5-0.2c0-2.4,0-4.8,0-7.3C48.2,63.5,47.3,64.7,46.4,65.9z"/>
	<path class="st2" d="M12.8,75.5c-0.1-1.9-0.2-3.7-0.3-5.5c-0.1-1.9-0.2-3.8-0.3-5.7c0-0.3,0.1-0.4,0.4-0.5c1.5-0.5,3-1.1,4.5-1.6
		c0.5-0.2,1.1-0.2,1.7-0.2c1.1,0,2,0.7,2.2,1.8c0.5,1.9-0.1,3.5-1.6,4.8c-0.1,0.1-0.2,0.1-0.2,0.2c0,0,0,0,0,0.1
		c0.9,1.2,1.8,2.3,2.7,3.5c-0.8,0.2-1.5,0.4-2.2,0.6c-0.7,0.2-0.7,0.2-1.2-0.4c-0.5-0.7-1.1-1.4-1.6-2.1c-0.2-0.3-0.4-0.3-0.7-0.2
		c-0.3,0.1-0.5,0.2-0.8,0.3c-0.2,0.1-0.3,0.2-0.2,0.4c0.1,1,0.1,2.1,0.2,3.1c0,0.3,0,0.4-0.3,0.5C14.3,74.9,13.6,75.2,12.8,75.5z
		 M15,68.6c0.8-0.3,1.6-0.6,2.3-0.9c0.7-0.3,1.1-0.9,1.2-1.6c0.2-1.2-0.4-1.9-1.6-1.6c-0.7,0.1-1.3,0.4-2,0.6
		c-0.1,0-0.2,0.2-0.2,0.2C14.9,66.4,14.9,67.5,15,68.6z"/>
	<path class="st2" d="M64.9,71.9c-0.8-0.2-1.6-0.4-2.4-0.6c-0.1,0-0.2-0.2-0.3-0.3c-0.2-0.7-0.4-1.4-0.7-2.1c0-0.1-0.2-0.3-0.3-0.3
		c-1.2-0.2-2.4-0.4-3.6-0.7c-0.2,0-0.3,0.1-0.3,0.3c-0.3,0.7-0.5,1.4-0.8,2.1c-0.9-0.1-1.7-0.2-2.6-0.3c0.5-1.2,1-2.4,1.5-3.5
		c1-2.4,2-4.8,3-7.2c0.1-0.3,0.2-0.4,0.6-0.3c0.6,0.1,1.2,0.2,1.7,0.3c0.3,0,0.4,0.2,0.5,0.4c0.7,2.2,1.4,4.3,2.1,6.5
		c0.6,1.8,1.1,3.6,1.7,5.4C64.8,71.6,64.8,71.7,64.9,71.9z M58.2,65.8c0.9,0.1,1.7,0.3,2.5,0.4c-0.4-1.3-0.8-2.5-1.1-3.7
		c0,0-0.1,0-0.1,0C59.1,63.6,58.7,64.7,58.2,65.8z"/>
	<path class="st2" d="M27.1,68.9c1.2-0.2,2.3-0.4,3.5-0.6c-0.4,0.8-0.7,1.6-1.1,2.3c0,0.1-0.2,0.2-0.3,0.2c-1.5,0.3-3,0.6-4.4,0.9
		c0,0,0,0-0.1,0c0-0.1,0-0.2,0-0.3c0-1.2-0.1-2.4-0.1-3.6c-0.1-2.5-0.2-4.9-0.3-7.4c0-0.3,0.1-0.4,0.3-0.4c2.4-0.5,4.9-0.9,7.3-1.4
		c0.1,0,0.2,0,0.4,0c0,0.7,0,1.4,0,2c0,0.1-0.1,0.2-0.2,0.2c-1.6,0.3-3.2,0.6-4.8,0.9c-0.1,0-0.3,0.2-0.3,0.2c0,0.7,0,1.4,0,2.2
		c1.6-0.3,3.1-0.6,4.8-0.8c0,0.7,0,1.4,0,2.1c0,0.1-0.2,0.2-0.3,0.2c-1.3,0.2-2.7,0.5-4,0.7c-0.3,0.1-0.5,0.1-0.4,0.5
		c0.1,0.5,0,1,0,1.5C27,68.6,27.1,68.7,27.1,68.9z"/>
	<path class="st2" d="M76.2,75.4c-0.9-0.3-1.7-0.6-2.6-1c-0.1-0.1-0.3-0.2-0.3-0.4c-0.6-1.3-1.1-2.6-1.6-3.9c0-0.1-0.1-0.2-0.2-0.3
		c-0.1,0.1-0.2,0.2-0.2,0.3c-0.6,0.9-1.3,1.8-1.9,2.7C69.2,72.9,69.1,73,69,73c-0.9-0.2-1.7-0.5-2.7-0.7c0.6-0.7,1.1-1.5,1.6-2.2
		c0.6-0.8,1.3-1.7,1.9-2.5c0.1-0.2,0.2-0.3,0.1-0.5c-1-2-1.9-4-2.8-6c-0.1-0.1-0.1-0.2-0.2-0.4c0.7,0.2,1.3,0.4,2,0.5
		c0.7,0.1,1.1,0.5,1.4,1.2c0.4,1,0.9,2,1.3,3.1c0,0.1,0.1,0.2,0.1,0.3c0.6-0.9,1.3-1.7,1.9-2.6c0.2-0.3,0.4-0.4,0.8-0.3
		c0.7,0.3,1.5,0.6,2.3,0.9c-0.5,0.6-1,1.2-1.5,1.8c-0.6,0.8-1.3,1.5-1.9,2.3c-0.2,0.2-0.2,0.4-0.1,0.7c1,2.2,1.9,4.3,2.9,6.5
		C76.1,75.2,76.1,75.3,76.2,75.4z"/>
	<path class="st2" d="M49.1,135.1c-0.6-0.1-0.6,0.3-0.7,0.7c-0.4,1.6-0.9,3.2-1.4,4.9c-0.1,0.3-0.2,0.4-0.5,0.4c-1.7,0-3.4,0-5.1,0
		c-0.3,0-0.4-0.1-0.5-0.4c-0.5-1.7-0.9-3.4-1.4-5.1c-0.1-0.3-0.1-0.5-0.5-0.5c-0.1,0-0.2-0.2-0.2-0.3c0-0.1,0.1-0.2,0.2-0.3
		c0.2,0,0.4,0,0.6,0c3,0,6,0,8.9,0C49.2,134.5,49.2,134.5,49.1,135.1z"/>
	<path class="st2" d="M41.1,57.7c-0.6,1.2-1.2,2.3-1.7,3.4c-1.4,2.8-2.8,5.5-4.1,8.3C35,69.8,34.9,70,34.4,70
		c-0.8,0.1-1.7,0.2-2.6,0.3c0.1-0.3,0.2-0.5,0.3-0.7c1.8-3.7,3.6-7.5,5.4-11.2c0.2-0.4,0.4-0.6,0.8-0.6
		C39.3,57.9,40.1,57.8,41.1,57.7z"/>
	<path class="st2" d="M58.2,137.6c0,1.8-1.4,3.2-3.2,3.2c-1.8,0-3.2-1.4-3.2-3.1c0-1.8,1.4-3.2,3.1-3.2
		C56.8,134.5,58.2,135.8,58.2,137.6z M55,134.9c-1.4,0-2.6,1.2-2.6,2.7c0,1.5,1.2,2.8,2.6,2.8c1.5,0,2.6-1.2,2.6-2.7
		C57.6,136.1,56.4,134.9,55,134.9z"/>
	<path class="st2" d="M55.6,137.7c0.5,0.4,0.5,0.5,0.7,1.7c-0.5,0.1-0.5,0.1-0.6-0.4c0,0,0-0.1,0-0.1c-0.2-0.9-0.3-1-1.3-0.9
		c0,0.5,0,1,0,1.5c-0.2,0-0.3,0-0.5,0c0-0.5,0-0.9,0-1.4c0-0.5,0-1.1,0-1.6c0-0.3,0-0.5,0.4-0.5c0.4,0,0.8,0,1.2,0
		c0.5,0.1,0.7,0.3,0.8,0.7c0.1,0.4-0.1,0.7-0.5,0.9C55.7,137.6,55.7,137.7,55.6,137.7z M54.4,137.6c0.4-0.1,0.7-0.1,1-0.2
		c0.4-0.1,0.4-0.6,0.1-0.9c-0.2-0.2-0.8-0.3-1-0.2c-0.1,0-0.1,0.1-0.1,0.2C54.4,136.8,54.4,137.1,54.4,137.6z"/>
</g>
<path class="st2" d="M354.5,138.2l-0.2-0.5c0.1-0.1,0.1-0.1,0.1-0.2c0-0.2-0.1-0.3-0.3-0.3h-0.2v1h0.1v-0.4h0.2l0.2,0.4L354.5,138.2
	L354.5,138.2z M354.1,137.7v-0.3h0.1c0.1,0,0.2,0.1,0.2,0.1C354.3,137.6,354.3,137.7,354.1,137.7L354.1,137.7L354.1,137.7z"/>
<path class="st2" d="M354.2,138.6c-0.5,0-0.9-0.4-0.9-0.9c0-0.5,0.4-0.9,0.9-0.9c0.5,0,0.9,0.4,0.9,0.9
	C355.1,138.2,354.7,138.6,354.2,138.6 M354.2,137c-0.4,0-0.8,0.3-0.8,0.8c0,0.4,0.3,0.8,0.8,0.8c0,0,0,0,0,0c0.4,0,0.8-0.3,0.8-0.8
	c0,0,0,0,0,0C355,137.3,354.6,137,354.2,137 M307.9,129.5l-2.4,7.3l-2.8-7.3h-0.7l3.4,8.9h0.3l2.4-7.9l2.5,7.9h0.3l3.4-8.9h-0.7
	l-2.8,7.3l-2.4-7.3H307.9z M317.3,129.6v8.9h4.3v-0.6H318v-8.3H317.3z M322.9,129.6v8.9h4.3v-0.6h-3.7v-8.3H322.9z M328.4,138.5h0.7
	v-8.9h-0.7V138.5z M315.3,138.5h0.7v-8.9h-0.7V138.5z M333.8,129.5l-3.7,8.9h0.6l1.3-3.1h3.9l1.3,3.1h0.6l-3.7-8.9H333.8
	L333.8,129.5z M333.9,130.6l1.7,4.2h-3.4L333.9,130.6z M346.2,129.6l-3.4,4.1l-3.4-4.1h-0.7v8.9h0.7v-7.9h0l3.4,4.1l3.3-4.1h0v7.9
	h0.7v-8.9H346.2z M352.6,131c-0.6-0.7-1.4-0.9-2-0.9c-1.1,0-1.9,0.7-1.9,1.7c0,2.4,4.2,1.2,4.2,4.3c0,1.4-1.1,2.4-2.6,2.4
	c-0.7,0-1.5-0.2-2.3-0.8V137c0.9,0.8,1.5,0.9,2.2,0.9c1.1,0,1.9-0.8,1.9-1.8c0-2.5-4.2-1.4-4.2-4.3c0-1.3,1.1-2.3,2.5-2.4
	c0.7,0,1.6,0.3,2,0.8L352.6,131L352.6,131z M279.7,129.6v8.9h4.6v-1.1H281v-7.7H279.7z M285.1,129.6v8.9h4.6v-1.1h-3.3v-7.7H285.1z
	 M290.5,129.6v8.9h5.2v-1.1h-3.9v-2.8h3.6v-1.1h-3.6v-2.7h3.8v-1.1H290.5z M302.2,138.5l-1.6-4.1c1-0.8,1.1-1.4,1.1-2.2
	c0-1.5-1.1-2.5-2.9-2.5h-2.2v8.9h1.3v-4c0,0,1.1,0,1.5,0l1.6,4L302.2,138.5L302.2,138.5L302.2,138.5z M297.7,133.5v-2.8h0.8
	c1.2,0,1.7,0.5,1.7,1.3c0,0.7-0.4,1.4-1.7,1.4L297.7,133.5L297.7,133.5z M273.7,129.6v8.9h5.1v-1.1H275v-2.8h3.6v-1.1H275v-2.7h3.8
	v-1.1H273.7z M271.5,129.6l-0.5,0.5l-3.3,3.6v-4h-1.3v8.8h1.3v-3l1.4-1.6l1.9,4.6h1.3v0l-0.5-1.1l-1.8-4.4l1.9-2.1l1-1.1H271.5z"/>
<path class="st2" d="M266.5,98.3v26.9h3.7v-6.3l2.7-2.7l3.8,9h3.8l-5-12l3.5-3.9l6.9,15.9h1.4l5.2-12.3l5.2,12.3h1.4l7.9-18.1h-3.8
	l-4.7,11l-4.6-11h-2.7l-4.6,11l-4.8-11h-5l-6.7,6.7V98.3H266.5z"/>
<g>
	<path class="st3" d="M6.8,10.9H5.5v3.2H2.9V4.6h4c2.4,0,3.6,1.3,3.6,3.2C10.4,9.5,9.3,10.9,6.8,10.9z M6.6,8.8c0.8,0,1.1-0.4,1.1-1
		c0-0.6-0.3-1-1.1-1H5.5v2.1H6.6z"/>
	<path class="st3" d="M14.1,14.2h-2.6V6.6h2.6v1.3c0.6-0.8,1.4-1.4,2.4-1.4v2.8h-0.7c-1.1,0-1.7,0.4-1.7,1.5V14.2z"/>
	<path class="st3" d="M21,14.2c-2.3,0-4-1.5-4-3.9c0-2.4,1.7-3.9,4-3.9c2.3,0,4,1.5,4,3.9C25,12.8,23.3,14.2,21,14.2z M21,12
		c0.7,0,1.3-0.5,1.3-1.6c0-1.1-0.6-1.6-1.3-1.6c-0.7,0-1.3,0.5-1.3,1.6C19.8,11.5,20.3,12,21,12z"/>
	<path class="st3" d="M33.8,14.2h-2.7v-1.1c-0.4,0.6-1.2,1.1-2.3,1.1C27.1,14.2,26,13,26,11V6.6h2.6v4.1c0,0.9,0.5,1.4,1.3,1.4
		c0.8,0,1.3-0.5,1.3-1.4V6.6h2.7V14.2z"/>
	<path class="st3" d="M38.1,6.5c1,0,1.8,0.4,2.2,1.1V4.2H43v10h-2.7v-1.1c-0.4,0.7-1.1,1.1-2.2,1.1c-1.8,0-3.2-1.5-3.2-3.9
		C34.9,8,36.3,6.5,38.1,6.5z M39,8.8c-0.8,0-1.4,0.5-1.4,1.6c0,1,0.6,1.6,1.4,1.6c0.7,0,1.4-0.6,1.4-1.6C40.4,9.4,39.7,8.8,39,8.8z"
		/>
	<path class="st3" d="M44.5,4.2h2.6v10h-2.6V4.2z"/>
	<path class="st3" d="M53.9,6.6h2.9L52,17.8h-2.9l1.8-3.9l-3.1-7.2h2.9l1.6,4.3L53.9,6.6z"/>
	<path class="st3" d="M63.7,14.2c-2.1,0-3.8-1-3.9-3h2.8c0.1,0.7,0.5,1,1,1c0.5,0,0.8-0.2,0.8-0.7c0-1.5-4.6-0.8-4.6-4.1
		c0-1.9,1.6-2.9,3.6-2.9c2.2,0,3.6,1.1,3.7,3h-2.9c0-0.6-0.4-0.9-0.9-0.9c-0.4,0-0.7,0.2-0.7,0.7c0,1.4,4.6,1,4.6,4
		C67.2,12.9,65.9,14.2,63.7,14.2z"/>
	<path class="st3" d="M71.9,14.2c-2.2,0-3.8-1.5-3.8-3.9c0-2.4,1.6-3.9,3.8-3.9c2.2,0,3.8,1.4,3.8,3.8c0,0.2,0,0.4,0,0.6h-5
		c0.1,0.9,0.5,1.2,1.1,1.2c0.5,0,0.8-0.3,0.9-0.6h2.8C75.2,13.1,73.7,14.2,71.9,14.2z M70.6,9.6H73c0-0.7-0.5-1-1.1-1
		C71.2,8.6,70.8,8.9,70.6,9.6z"/>
	<path class="st3" d="M79.4,14.2h-2.6V6.6h2.6v1.3c0.6-0.8,1.4-1.4,2.4-1.4v2.8h-0.7c-1.1,0-1.7,0.4-1.7,1.5V14.2z"/>
	<path class="st3" d="M85,6.6l1.4,5.1l1.4-5.1h2.8l-2.6,7.6h-3.3l-2.6-7.6H85z"/>
	<path class="st3" d="M91.3,4.5c0-0.8,0.6-1.4,1.6-1.4c0.9,0,1.5,0.6,1.5,1.4c0,0.8-0.6,1.3-1.5,1.3C91.9,5.9,91.3,5.3,91.3,4.5z
		 M91.5,6.6h2.6v7.6h-2.6V6.6z"/>
	<path class="st3" d="M99.1,6.5c1.9,0,3.3,1.1,3.7,3H100C99.8,9,99.5,8.7,99,8.7c-0.6,0-1.1,0.5-1.1,1.6c0,1.1,0.4,1.6,1.1,1.6
		c0.5,0,0.8-0.3,0.9-0.7h2.8c-0.4,1.9-1.8,3-3.7,3c-2.3,0-3.8-1.5-3.8-3.9C95.3,8,96.8,6.5,99.1,6.5z"/>
	<path class="st3" d="M103.7,4.5c0-0.8,0.6-1.4,1.6-1.4c0.9,0,1.5,0.6,1.5,1.4c0,0.8-0.6,1.3-1.5,1.3C104.3,5.9,103.7,5.3,103.7,4.5
		z M103.9,6.6h2.6v7.6h-2.6V6.6z"/>
	<path class="st3" d="M113.2,10.1c0-0.9-0.5-1.4-1.2-1.4c-0.8,0-1.3,0.5-1.3,1.4v4.1H108V6.6h2.6v1.1c0.4-0.6,1.2-1.1,2.3-1.1
		c1.8,0,2.8,1.2,2.8,3.2v4.4h-2.6V10.1z"/>
	<path class="st3" d="M120.1,6.5c1.1,0,1.8,0.5,2.2,1.1V6.6h2.6v7.5c0,2-1.1,3.8-3.8,3.8c-2.4,0-3.8-1.2-4-3.1h2.6
		c0.1,0.5,0.6,0.8,1.2,0.8c0.7,0,1.3-0.3,1.3-1.5v-1c-0.4,0.7-1.2,1.1-2.2,1.1c-1.8,0-3.2-1.5-3.2-3.9C116.9,8,118.3,6.5,120.1,6.5z
		 M120.9,8.8c-0.8,0-1.4,0.5-1.4,1.6c0,1,0.6,1.6,1.4,1.6c0.7,0,1.4-0.6,1.4-1.6C122.3,9.4,121.7,8.8,120.9,8.8z"/>
	<path class="st3" d="M135.1,12.6h-3.4l-0.5,1.6h-2.8l3.5-9.5h3l3.5,9.5h-2.8L135.1,12.6z M133.4,7.5l-1,3.1h2L133.4,7.5z"/>
	<path class="st3" d="M142,6.5c1.1,0,1.8,0.5,2.2,1.1V6.6h2.6v7.5c0,2-1.1,3.8-3.8,3.8c-2.4,0-3.8-1.2-4-3.1h2.6
		c0.1,0.5,0.6,0.8,1.2,0.8c0.7,0,1.3-0.3,1.3-1.5v-1c-0.4,0.7-1.2,1.1-2.2,1.1c-1.8,0-3.2-1.5-3.2-3.9C138.8,8,140.2,6.5,142,6.5z
		 M142.9,8.8c-0.8,0-1.4,0.5-1.4,1.6c0,1,0.6,1.6,1.4,1.6c0.7,0,1.4-0.6,1.4-1.6C144.3,9.4,143.6,8.8,142.9,8.8z"/>
	<path class="st3" d="M151.8,14.2c-2.2,0-3.8-1.5-3.8-3.9c0-2.4,1.6-3.9,3.8-3.9c2.2,0,3.8,1.4,3.8,3.8c0,0.2,0,0.4,0,0.6h-5
		c0.1,0.9,0.5,1.2,1.1,1.2c0.5,0,0.8-0.3,0.9-0.6h2.8C155.1,13.1,153.7,14.2,151.8,14.2z M150.6,9.6h2.3c0-0.7-0.5-1-1.1-1
		C151.2,8.6,150.7,8.9,150.6,9.6z"/>
	<path class="st3" d="M161.9,10.1c0-0.9-0.5-1.4-1.2-1.4c-0.8,0-1.3,0.5-1.3,1.4v4.1h-2.6V6.6h2.6v1.1c0.4-0.6,1.2-1.1,2.3-1.1
		c1.8,0,2.8,1.2,2.8,3.2v4.4h-2.6V10.1z"/>
	<path class="st3" d="M166.4,8.8h-0.9V6.6h0.9V4.8h2.7v1.8h1.4v2.2h-1.4v2.5c0,0.4,0.2,0.6,0.6,0.6h0.8v2.3h-1.1
		c-1.7,0-2.9-0.7-2.9-2.9V8.8z"/>
	<path class="st3" d="M174.9,14.2c-2.1,0-3.5-1.1-3.6-2.6h2.6c0.1,0.5,0.5,0.8,1,0.8c0.4,0,0.7-0.2,0.7-0.5c0-1.1-4-0.2-4-3
		c0-1.3,1.1-2.4,3.1-2.4c2.1,0,3.1,1.1,3.3,2.6h-2.4c-0.1-0.5-0.4-0.8-1-0.8c-0.4,0-0.7,0.2-0.7,0.5c0,1.1,4,0.2,4,3.1
		C178,13.3,176.8,14.2,174.9,14.2z"/>
	<path class="st3" d="M184.7,6.5c1.1,0,1.8,0.5,2.2,1.1V6.6h2.6v7.6h-2.6v-1.1c-0.4,0.7-1.2,1.1-2.2,1.1c-1.8,0-3.2-1.5-3.2-3.9
		C181.5,8,182.9,6.5,184.7,6.5z M185.5,8.8c-0.8,0-1.4,0.5-1.4,1.6c0,1,0.6,1.6,1.4,1.6c0.7,0,1.4-0.6,1.4-1.6
		C186.9,9.4,186.3,8.8,185.5,8.8z"/>
	<path class="st3" d="M191.5,8.8h-0.9V6.6h0.9V4.8h2.7v1.8h1.4v2.2h-1.4v2.5c0,0.4,0.2,0.6,0.6,0.6h0.8v2.3h-1.1
		c-1.7,0-2.9-0.7-2.9-2.9V8.8z"/>
	<path class="st3" d="M198,8.8c-0.9,0-1.6-0.6-1.6-1.4c0-0.8,0.6-1.4,1.6-1.4c0.9,0,1.5,0.6,1.5,1.4C199.6,8.2,199,8.8,198,8.8z
		 M198,14.3c-0.9,0-1.6-0.6-1.6-1.4c0-0.8,0.6-1.4,1.6-1.4c0.9,0,1.5,0.6,1.5,1.4C199.6,13.7,199,14.3,198,14.3z"/>
</g>
<g>
	<path class="st2" d="M143.4,37.9c0.1,0.1,0.3,0,0.4,0.1c1.2,0.1,2.4,0.2,3.5,0.5c2,0.4,3.9,1.1,5.7,2.1c0.7,0.4,1.4,0.8,2.1,1.2
		c0.1,0.1,0.1,0.1,0,0.2c-0.7,1-1.4,2-2.1,3c-0.1,0.1-0.1,0.1-0.2,0c-0.8-0.5-1.5-0.9-2.4-1.3c-1.5-0.7-3.1-1.2-4.8-1.5
		c-0.5-0.1-1.1-0.2-1.6-0.2c-0.8-0.1-1.5-0.1-2.3-0.1c-0.6,0-1.1,0-1.7,0.1c-1,0.1-2.1,0.3-3.1,0.6c-1.1,0.3-2.2,0.7-3.2,1.1
		c-0.9,0.4-1.7,0.9-2.5,1.4c0,0,0,0,0,0c0,0,0,0,0,0c-0.4,0.3-0.9,0.6-1.3,0.9c-0.4,0.3-0.8,0.7-1.2,1c-0.4,0.4-0.9,0.8-1.3,1.2
		c-0.6,0.7-1.2,1.4-1.7,2.1c-0.6,0.9-1.2,1.8-1.6,2.8c-0.3,0.6-0.5,1.2-0.7,1.8c-0.2,0.5-0.3,1-0.5,1.5c-0.2,0.5-0.3,1-0.4,1.5
		c-0.1,0.3-0.1,0.6-0.1,0.8c-0.2,1.2-0.2,2.4-0.2,3.6c0,0.5,0.1,1.1,0.1,1.6c0,0.2,0,0.4,0.1,0.6c0.1,0.3,0.1,0.6,0.2,0.9
		c0.1,0.4,0.1,0.8,0.3,1.2c0.2,0.5,0.3,1.1,0.5,1.6c0.3,0.9,0.7,1.7,1.1,2.6c0.3,0.5,0.6,1,0.9,1.5c0.6,0.9,1.3,1.8,2,2.6
		c0.4,0.4,0.8,0.9,1.2,1.2c0.7,0.6,1.4,1.2,2.2,1.7c0.4,0.3,0.9,0.6,1.4,0.8c0.5,0.3,1,0.5,1.5,0.8c0.2,0.1,0.5,0.2,0.7,0.3
		c0.3,0.2,0.7,0.3,1.1,0.4c0.3,0.1,0.6,0.2,0.9,0.3c0.4,0.1,0.8,0.3,1.3,0.3c0.3,0,0.5,0.2,0.8,0.2c0.1,0,0.2,0.1,0.4,0.1
		c0.2,0,0.4,0,0.6,0.1c0.2,0,0.4,0.1,0.6,0.1c0.3,0,0.7,0.1,1,0.1c0.6,0,1.2,0,1.8,0c0.5,0,0.9,0,1.4-0.1c0.2,0,0.5,0,0.7-0.1
		c0,0,0.1,0,0.2,0c0.4,0,0.7-0.1,1-0.2c0.4-0.1,0.8-0.2,1.2-0.3c0.7-0.2,1.3-0.4,1.9-0.7c0.2-0.1,0.4-0.2,0.7-0.3
		c0.2-0.1,0.4-0.2,0.6-0.3c0.2-0.1,0.4-0.2,0.6-0.3c0.2-0.1,0.3-0.1,0.5-0.3c0.2-0.1,0.3-0.2,0.5-0.3c0.4-0.2,0.7-0.4,1.1-0.7
		c0.1-0.1,0.1,0,0.2,0c0.7,1,1.4,2,2.1,3c0.1,0.1,0,0.1,0,0.2c-0.5,0.3-1,0.6-1.5,0.9c-0.7,0.4-1.5,0.8-2.3,1.2
		c-0.4,0.2-0.9,0.4-1.3,0.5c-0.4,0.2-0.8,0.3-1.2,0.4c-0.6,0.2-1.2,0.3-1.8,0.5c-0.5,0.1-1,0.2-1.6,0.3c-0.3,0.1-0.6,0.1-1,0.1
		c-0.5,0.1-1,0.1-1.5,0.1c0,0-0.1,0-0.1,0.1c0,0-0.1,0-0.1,0c0-0.1,0-0.1-0.1-0.1c-0.8,0-1.6,0-2.4,0c-0.5,0-0.9,0-1.4-0.1
		c0,0,0,0,0,0c0,0-0.1,0-0.1,0c-0.3,0-0.5,0-0.8-0.1c-0.7-0.1-1.4-0.3-2.2-0.5c-0.8-0.2-1.5-0.4-2.3-0.7c-0.7-0.3-1.4-0.6-2.1-0.9
		c-0.6-0.3-1.2-0.6-1.7-0.9c-0.6-0.4-1.3-0.8-1.9-1.2c-0.9-0.7-1.8-1.4-2.6-2.1c-0.6-0.5-1.1-1.1-1.6-1.7c-1-1.1-1.8-2.3-2.6-3.6
		c-0.8-1.3-1.4-2.7-1.9-4.2c-0.4-1.3-0.8-2.6-1-3.9c-0.1-0.8-0.2-1.5-0.3-2.3c0-0.2,0-0.4-0.1-0.6c0-0.7,0-1.4,0-2.1
		c0,0,0-0.1,0-0.1c0-0.5,0.1-1.1,0.1-1.6c0.1-1,0.3-2,0.5-2.9c0.4-1.5,0.9-3,1.6-4.5c0.3-0.6,0.6-1.2,0.9-1.8
		c0.2-0.3,0.4-0.6,0.6-0.9c0.4-0.6,0.8-1.2,1.3-1.8c0.2-0.3,0.4-0.6,0.7-0.9c0.3-0.3,0.5-0.5,0.7-0.8c0.6-0.6,1.2-1.2,1.8-1.7
		c0.2-0.2,0.4-0.4,0.7-0.5c0.5-0.4,1-0.8,1.5-1.1c0.4-0.3,0.9-0.6,1.3-0.8c0.3-0.2,0.6-0.3,0.9-0.5c0.4-0.2,0.8-0.4,1.2-0.6
		c0.8-0.4,1.7-0.7,2.6-1c0.8-0.3,1.6-0.5,2.5-0.7c0.5-0.1,0.9-0.2,1.4-0.2c0.7-0.1,1.5-0.2,2.2-0.2c0.1,0,0.2,0,0.2,0
		C141.9,37.9,142.6,37.9,143.4,37.9z"/>
	<path class="st2" d="M141,37.9C141,37.9,141,37.9,141,37.9c0.1,0,0.1,0,0.2,0C141.1,37.9,141.1,37.9,141,37.9z"/>
	<path class="st2" d="M137.4,55.4c-0.4,0-0.7,0.2-1.1,0.4c-0.4,0.3-0.8,0.6-1,1.1c-0.2,0.4-0.3,0.8-0.2,1.2c0,0.1,0,0.1-0.1,0.1
		c-1.2,0-2.4,0-3.7,0c-0.1,0-0.1,0-0.1-0.1c0-0.3,0-0.5,0-0.8c0-0.2,0-0.3,0-0.5c0-0.1,0.1-0.3,0.1-0.4c0.3-1.1,0.8-2,1.5-2.9
		c0.5-0.5,1-0.9,1.6-1.3c0.7-0.4,1.5-0.7,2.4-0.8c0.5-0.1,1-0.1,1.5,0c1,0.1,1.9,0.4,2.8,0.9c1.5,0.9,2.4,2.2,2.9,3.8
		c0.2,0.7,0.3,1.4,0.2,2.1c-0.1,1.2-0.5,2.4-1.2,3.4c-1,1.5-2.1,3-3.1,4.5c-0.4,0.6-0.8,1.1-1.2,1.7c0,0-0.1,0.1-0.1,0.2
		c2.1,0,4.2,0,6.3,0c-0.1,0.2-0.2,0.3-0.3,0.4c-0.5,0.7-1,1.5-1.5,2.2c-0.2,0.3-0.5,0.7-0.7,1c0,0,0,0,0,0c-0.1,0.3-0.3,0.3-0.6,0.3
		c-3.5,0-7,0-10.5,0c-0.1,0-0.1,0-0.2,0c0.1-0.2,0.3-0.4,0.4-0.6c0.5-0.7,1-1.5,1.5-2.2c0.5-0.7,1-1.4,1.4-2.1
		c0.5-0.7,1-1.5,1.5-2.2c0.3-0.5,0.7-0.9,1-1.4c0.4-0.5,0.7-1,1.1-1.5c0.5-0.7,0.9-1.3,1.4-2c0.4-0.5,0.7-1.1,0.8-1.8
		c0.2-0.8-0.1-1.5-0.6-2.1c-0.6-0.6-1.2-0.8-2-0.8C137.6,55.4,137.5,55.3,137.4,55.4C137.5,55.4,137.4,55.4,137.4,55.4z"/>
	<path class="st2" d="M145.9,55.4c0.6-0.9,1.2-1.8,1.8-2.6c0.3-0.4,0.5-0.8,0.8-1.2c0.1-0.1,0.1-0.1,0.3-0.1c1.4,0,2.8,0,4.3,0
		c0.2,0,0.2,0,0.2,0.2c0,6.7,0,13.5,0,20.2c0,0.2-0.1,0.2-0.2,0.2c-1.2,0-2.4,0-3.5,0c-0.2,0-0.2,0-0.2-0.2c0-5.4,0-10.8,0-16.2
		c0-0.2,0-0.2-0.2-0.2c-1,0-2,0-3,0C146.1,55.4,146,55.4,145.9,55.4z"/>
	<path class="st2" d="M155.4,71.7c0.1-0.1,0.1-0.3,0.2-0.4c0-0.1,0-0.1,0.1-0.1c0.1,0,0.1,0.1,0.1,0.1c0,0.2,0,0.4,0,0.6
		c0,0,0,0.1,0,0.1c-0.1,0,0-0.1,0-0.1c0-0.2,0-0.3,0-0.5c-0.1,0.1-0.1,0.3-0.2,0.4c0,0,0,0.1-0.1,0.1c-0.1,0-0.1-0.1-0.1-0.1
		c0-0.1-0.1-0.1-0.1-0.2c0,0,0-0.1-0.1-0.1c0,0,0,0.1,0,0.1c0,0.1,0,0.2,0,0.3c0,0,0,0.1,0,0.1c0,0,0,0,0-0.1c0-0.2,0-0.4,0-0.6
		c0,0,0-0.1,0.1-0.1c0.1,0,0.1,0,0.1,0.1C155.2,71.4,155.2,71.6,155.4,71.7C155.3,71.7,155.3,71.7,155.4,71.7
		C155.4,71.7,155.4,71.7,155.4,71.7z M155.1,71.4C155.1,71.4,155.1,71.4,155.1,71.4C155.1,71.4,155.1,71.4,155.1,71.4
		C155.1,71.4,155,71.5,155.1,71.4C155.1,71.5,155.1,71.5,155.1,71.4C155.1,71.4,155.1,71.4,155.1,71.4z"/>
	<path class="st2" d="M154.5,72c-0.1,0-0.1,0-0.2,0c0,0-0.1,0-0.1-0.1c0,0,0.1,0,0.1,0c0.1,0,0.2,0.1,0.3,0c0.1-0.1,0.1-0.1,0-0.2
		c-0.1,0-0.1,0-0.2-0.1c-0.1-0.1-0.1-0.1-0.1-0.2c0-0.1,0.1-0.2,0.2-0.2c0.1,0,0.1,0,0.2,0c0.1,0,0.2,0,0.2,0.1c0,0.1-0.1,0-0.2,0
		c-0.1,0-0.2,0-0.2,0.1c0,0.1,0.1,0.1,0.2,0.1c0.2,0,0.3,0.1,0.3,0.2C154.8,71.9,154.7,72,154.5,72z"/>
	<path class="st2" d="M155.4,71.7C155.4,71.7,155.4,71.7,155.4,71.7C155.3,71.7,155.3,71.7,155.4,71.7
		C155.3,71.7,155.3,71.7,155.4,71.7z"/>
	<path class="st2" d="M131.4,45C131.4,45,131.4,45,131.4,45C131.4,45,131.4,45,131.4,45z"/>
	<path class="st2" d="M137.4,55.4C137.4,55.4,137.5,55.4,137.4,55.4C137.5,55.4,137.4,55.4,137.4,55.4z"/>
	<path class="st2" d="M139.5,85.4C139.5,85.4,139.5,85.3,139.5,85.4C139.5,85.3,139.5,85.4,139.5,85.4z"/>
	<path class="st2" d="M155.1,71.4C155.1,71.4,155.1,71.4,155.1,71.4C155.1,71.4,155.1,71.4,155.1,71.4
		C155.1,71.4,155.1,71.4,155.1,71.4z"/>
</g>
<g>
	<path class="st2" d="M331.8,55c0.1-0.4,0.1-0.7,0.2-1.1c0.8-5.1,3.5-8.7,8.3-10.7c2.8-1.2,5.7-1.4,8.6-0.9c4.1,0.8,6.9,3.2,8.5,7
		c0.8,2,1.2,4,1.3,6.2c0,0.8,0,1.5,0,2.3c0,0.2,0,0.3,0,0.5c-6.7,0-13.4,0-20.1,0c0.1,0.9,0.3,1.7,0.6,2.4c1,2.1,2.8,3.3,5,3.7
		c1.1,0.2,2.1,0.1,3.2,0c1.9-0.3,3.4-1.5,4.8-2.8c0.2-0.2,0.3-0.4,0.6-0.6c1.6,1.2,3.1,2.4,4.8,3.6c-0.5,0.5-0.9,1-1.4,1.5
		c-2.1,2.1-4.7,3.2-7.6,3.6c-3.7,0.5-7.2-0.1-10.4-2.1c-3.3-2.1-5.2-5.1-6-8.9c-0.1-0.5-0.1-1-0.2-1.5c0-0.1,0-0.2-0.1-0.3
		C331.8,56.3,331.8,55.6,331.8,55z M351.9,53.3c-0.1-0.5-0.1-0.9-0.2-1.4c-0.4-2-1.4-3.4-3.3-4.2c-0.8-0.3-1.6-0.5-2.4-0.6
		c-1.3-0.1-2.6,0-3.9,0.5c-1.8,0.8-2.9,2.3-3.5,4.1c-0.2,0.5-0.3,1-0.3,1.5C342.9,53.3,347.4,53.3,351.9,53.3z"/>
	<path class="st2" d="M397.2,65.9c0,5.2,0,10.5,0,15.7c-0.4,0.1-6,0.1-6.6,0.1c-0.1-0.4-0.1-38.5,0-38.9c2.1,0,4.1,0,6.2,0
		c0,1.3,0,2.6,0,3.9c0,0,0.1,0,0.1,0c0-0.1,0.1-0.1,0.1-0.2c1.3-2.1,3.2-3.4,5.5-4c3.6-0.9,7-0.5,10.3,1.3c2.9,1.7,4.7,4.2,5.6,7.4
		c1.1,3.8,0.9,7.6-0.7,11.2c-1.6,3.5-4.3,5.9-8,6.9c-2.9,0.8-5.8,0.6-8.6-0.6c-1.3-0.6-2.5-1.4-3.4-2.5c-0.1-0.1-0.2-0.3-0.3-0.4
		C397.3,65.9,397.2,65.9,397.2,65.9z M404.7,48.1c-0.3,0-0.6,0-0.9,0.1c-2.5,0.3-4.3,1.5-5.6,3.5c-1.1,1.8-1.4,3.7-1,5.8
		c0.3,1.8,1.1,3.4,2.5,4.6c1.7,1.5,3.7,2,5.9,1.8c2.3-0.2,4.1-1.2,5.4-3c1.5-2,1.8-4.3,1.3-6.7c-0.3-1.5-1-2.8-2.1-3.9
		C408.6,48.8,406.8,48.1,404.7,48.1z"/>
	<path class="st2" d="M392,36.5c-4.9,6.5-9.9,13-14.8,19.5c3.3,4.4,6.7,8.8,10.1,13.2c-0.2,0-0.3,0.1-0.4,0.1c-2.4,0-4.9,0-7.3,0
		c-0.3,0-0.5-0.1-0.6-0.3c-1.8-2.4-3.7-4.8-5.5-7.3c-0.1-0.1-0.1-0.2-0.3-0.3c-0.1,0.1-0.2,0.3-0.3,0.4c-1.8,2.4-3.7,4.8-5.5,7.2
		c-0.2,0.2-0.3,0.4-0.6,0.4c-2.5,0-5,0-7.4,0c-0.1,0-0.1,0-0.2,0c0.1-0.1,0.1-0.2,0.2-0.3c4.3-5.6,8.6-11.2,12.8-16.8
		c3.9-5.1,7.7-10.1,11.6-15.2c0.2-0.3,0.5-0.4,0.9-0.4c2.3,0,4.6,0,7,0c0.2,0,0.3,0,0.5,0C392,36.5,392,36.5,392,36.5z"/>
	<path class="st2" d="M371.2,48.2c-1.3,1.7-2.6,3.5-3.9,5.2c-0.3-0.2-7.9-10.1-8.1-10.6c0.1,0,0.2,0,0.3,0c2.4,0,4.8,0,7.3,0
		c0.2,0,0.4,0,0.5,0.2c1.3,1.7,2.5,3.3,3.8,5C371.1,48,371.2,48.1,371.2,48.2z"/>
	<path class="st2" d="M348.8,75.2c1.1-0.1,2.1,0,3.2,0c0-0.3,0-0.5,0-0.7c0-0.5,0-0.5-0.5-0.5c-1.2,0-2.4,0-3.6,0
		c-0.4,0-0.5,0-0.5,0.5c0,2,0,4.1,0,6.1c0,0.5,0,0.5,0.5,0.5c1.2,0,2.4,0,3.6,0c0.1,0,0.3,0,0.4,0c0-0.1,0.1-0.1,0.1-0.2
		c0-0.1,0-0.3,0-0.4c0-0.7,0-0.7-0.6-0.7c-0.7,0-1.4,0-2.1,0c-0.1,0-0.3,0-0.4,0c0-0.6,0-1.1,0-1.7c0.2,0,0.3,0,0.5,0
		c0.5,0,0.9,0,1.4,0c0.8,0,0.8,0,0.8-0.8c0-0.4-0.1-0.5-0.5-0.5c-0.6,0-1.2,0-1.7,0c-0.2,0-0.3,0-0.5,0
		C348.8,76.2,348.8,75.7,348.8,75.2z"/>
	<path class="st2" d="M382.2,76.3c-0.1-0.2-0.2-0.3-0.3-0.4c-0.4-0.5-0.7-1.1-1.1-1.6c-0.1-0.1-0.3-0.3-0.4-0.3
		c-0.3-0.1-0.6,0-0.9,0c-0.2,0-0.3,0.2-0.2,0.4c0.1,0.1,0.1,0.2,0.2,0.3c0.6,0.9,1.2,1.7,1.8,2.6c0.2,0.3,0.3,0.5,0.3,0.8
		c0,0.7,0,1.4,0,2.1c0,1.1,0,0.9,0.9,0.9c0.4,0,0.5,0,0.5-0.5c0-0.9,0-1.7,0-2.6c0-0.2,0.1-0.5,0.2-0.7c0.6-0.9,1.2-1.8,1.9-2.7
		c0.1-0.1,0.2-0.2,0.2-0.4c0.1-0.1,0-0.3-0.1-0.3c-0.4,0-0.7-0.1-1.1,0c-0.2,0-0.3,0.3-0.5,0.5C383.1,75.1,382.7,75.7,382.2,76.3z"
		/>
	<path class="st2" d="M372.9,75.2c0,0.2,0,0.4,0,0.5c0,1.5,0,3,0,4.5c0,0.9-0.1,0.8,0.8,0.8c0.5,0,0.5,0,0.5-0.5c0-1.6,0-3.2,0-4.8
		c0-0.2,0-0.3,0-0.5c0.1,0,0.1-0.1,0.1-0.1c0.3,0,0.6,0,0.9,0c0.7,0,0.7,0,0.7-0.7c0-0.5,0-0.5-0.6-0.5c-1.2,0-2.4,0-3.5,0
		c-0.8,0-0.8,0-0.8,0.8c0,0.4,0.1,0.4,0.4,0.4C372,75.2,372.4,75.2,372.9,75.2z"/>
	<path class="st2" d="M364.4,81c1.4,0,2.7,0,4.1,0c0-0.2,0-0.4,0-0.6c0-0.6,0-0.6-0.6-0.6c-0.6,0-1.2,0-1.8,0c-0.1,0-0.3,0-0.4,0
		c0-0.2,0-0.4,0-0.5c0-1.5,0-3,0-4.5c0-0.8,0.1-0.8-0.8-0.8c-0.5,0-0.6,0-0.6,0.5c0,2,0,4,0,6C364.4,80.6,364.4,80.8,364.4,81z"/>
	<path class="st2" d="M343.2,76.4c0.1-1.3-0.8-2.4-2.2-2.4c-0.9,0-1.7,0-2.6,0c-0.5,0-0.5,0-0.5,0.6c0,2,0,4,0,6c0,0.1,0,0.2,0,0.3
		c0,0.1,0.1,0.2,0.2,0.2c0.3,0,0.7,0,1.1,0c0-1,0-1.8,0-2.7c0.4,0,0.8,0,1.1,0c0.1,0.2,0.2,0.3,0.2,0.5c0.3,0.7,0.7,1.3,1,2
		c0.1,0.1,0.2,0.3,0.3,0.3c0.4,0,0.8,0,1.3,0c-0.1-0.2-0.1-0.4-0.2-0.6c-0.3-0.6-0.7-1.2-1-1.8c-0.1-0.1-0.1-0.3-0.2-0.4
		c0.2-0.1,0.3-0.2,0.5-0.3C342.8,77.5,343.1,77,343.2,76.4z M341.9,76.3c-0.1,0.5-0.4,0.8-0.9,0.9c-0.5,0-1.1,0-1.6,0
		c0-0.7,0-1.3,0-1.9c0.6,0,1.2-0.1,1.8,0C341.6,75.3,341.9,75.8,341.9,76.3z"/>
	<path class="st2" d="M348.8,75.2c0,0.5,0,1,0,1.6c0.2,0,0.3,0,0.5,0c0.6,0,1.2,0,1.7,0c0.4,0,0.5,0.1,0.5,0.5c0,0.8,0,0.8-0.8,0.8
		c-0.5,0-0.9,0-1.4,0c-0.1,0-0.3,0-0.5,0c0,0.6,0,1.1,0,1.7c0.1,0,0.3,0,0.4,0c0.7,0,1.4,0,2.1,0c0.7,0,0.7,0,0.6,0.7
		c0,0.1,0,0.3,0,0.4c0,0,0,0.1-0.1,0.2c-0.1,0-0.2,0-0.4,0c-1.2,0-2.4,0-3.6,0c-0.5,0-0.5,0-0.5-0.5c0-2,0-4.1,0-6.1
		c0-0.5,0-0.5,0.5-0.5c1.2,0,2.4,0,3.6,0c0.5,0,0.5,0,0.5,0.5c0,0.2,0,0.5,0,0.7C350.9,75.2,349.9,75.1,348.8,75.2z"/>
	<path class="st2" d="M382.2,76.3c0.4-0.6,0.9-1.2,1.3-1.8c0.1-0.2,0.3-0.5,0.5-0.5c0.3-0.1,0.7,0,1.1,0c0.2,0,0.2,0.2,0.1,0.3
		c-0.1,0.1-0.2,0.3-0.2,0.4c-0.6,0.9-1.2,1.8-1.9,2.7c-0.1,0.2-0.2,0.4-0.2,0.7c0,0.9,0,1.7,0,2.6c0,0.4,0,0.5-0.5,0.5
		c-1,0-0.9,0.2-0.9-0.9c0-0.7,0-1.4,0-2.1c0-0.3-0.1-0.6-0.3-0.8c-0.6-0.9-1.2-1.7-1.8-2.6c-0.1-0.1-0.2-0.2-0.2-0.3
		c-0.1-0.2-0.1-0.4,0.2-0.4c0.3,0,0.6,0,0.9,0c0.2,0,0.3,0.2,0.4,0.3c0.4,0.5,0.8,1.1,1.1,1.6C382,76,382.1,76.2,382.2,76.3z"/>
	<path class="st2" d="M372.9,75.2c-0.5,0-0.9,0-1.3,0c-0.4,0-0.4-0.1-0.4-0.4c0-0.8,0-0.8,0.8-0.8c1.2,0,2.4,0,3.5,0
		c0.5,0,0.6,0,0.6,0.5c0,0.7,0,0.7-0.7,0.7c-0.3,0-0.6,0-0.9,0c0,0-0.1,0-0.1,0.1c0,0.1,0,0.3,0,0.5c0,1.6,0,3.2,0,4.8
		c0,0.5,0,0.5-0.5,0.5c-0.9,0-0.8,0.1-0.8-0.8c0-1.5,0-3,0-4.5C372.9,75.5,372.9,75.4,372.9,75.2z"/>
	<path class="st2" d="M364.4,81c0-0.2,0-0.4,0-0.5c0-2,0-4,0-6c0-0.5,0-0.5,0.6-0.5c0.9,0,0.8-0.1,0.8,0.8c0,1.5,0,3,0,4.5
		c0,0.2,0,0.3,0,0.5c0.2,0,0.3,0,0.4,0c0.6,0,1.2,0,1.8,0c0.5,0,0.6,0,0.6,0.6c0,0.2,0,0.4,0,0.6C367.1,81,365.8,81,364.4,81z"/>
	<path class="st2" d="M361.3,80.4c-0.6-1.4-1.3-2.8-1.9-4.2c-0.3-0.7-0.6-1.4-1-2.1c-0.1-0.1-0.2-0.2-0.3-0.2
		c-0.1,0-0.2,0.2-0.3,0.2c0,0,0,0.1,0,0.1c-1,2.1-2,4.2-2.9,6.3c-0.1,0.1-0.1,0.3-0.2,0.5c0.4,0,0.7,0,1,0c0.3,0,0.4-0.1,0.5-0.4
		c0.1-0.3,0.3-0.6,0.4-0.9c1,0,2,0,3,0c0.2,0.3,0.3,0.6,0.4,0.9c0.1,0.1,0.2,0.3,0.3,0.3c0.4,0,0.7,0,1.2,0
		C361.4,80.8,361.4,80.6,361.3,80.4z M357.1,78.6c0.3-0.7,0.6-1.4,0.9-2c0.2,0.2,0.8,1.3,1,2C358.4,78.6,357.8,78.6,357.1,78.6z"/>
</g>
<path class="st4" d="M257.2,75.2c0.2,0.4,0.5,1.2,0.5,1.5c0,0.4-0.2,0.4-0.9,0.4v0.3h3.6v-0.3c-0.5,0-0.7-0.4-1.2-1.5l-2.5-5.8h-0.3
	l-2.4,6c-0.3,0.8-0.5,1.2-1.1,1.3v0.3h2.2v-0.3c-0.4,0-0.9-0.1-0.9-0.5c0-0.2,0.2-0.6,0.5-1.4l0.2-0.4l1-2.7l1.1,2.7h-2.1l-0.2,0.4
	L257.2,75.2L257.2,75.2L257.2,75.2z M189.3,53.5c-0.5-1.9-2.1-4.9-5.2-4.9c-1.4,0-2.8,0.8-2.8,2.5c0,1.4,0.5,2,2.7,3.1l3.9,1.9
	c0.9,0.5,2.9,2,2.9,4.9c0,2.3-1.7,5.6-6.6,5.6c-2.5,0-3.7-0.9-4.6-0.9c-0.6,0-0.7,0.5-0.8,0.9h-0.8v-6.6h0.8
	c0.5,2.7,2.1,5.7,5.5,5.7c3.2,0,3.3-2.6,3.3-3c0-1.8-1.3-2.4-3-3.2l-1.8-0.9c-4.6-2.2-4.6-4.5-4.6-5.7c0-1.6,0.8-5.2,5.9-5.2
	c2.1,0,3.4,0.9,4.2,0.9c0.6,0,0.7-0.4,0.9-0.9h0.8v5.8L189.3,53.5L189.3,53.5L189.3,53.5z M200.7,47.8c-5.4,0-9.9,3.6-9.9,9.5
	c0,5.6,4.2,9.5,9.9,9.5c5.7,0,9.9-3.9,9.9-9.5C210.6,51.4,206.1,47.8,200.7,47.8z M200.7,48.6c3.9,0,5,4.7,5,8.6
	c0,2.3-0.2,8.6-5,8.6c-4.8,0-5-6.3-5-8.6C195.8,53.3,196.8,48.6,200.7,48.6z M223.4,66.2h-9.5v-0.7c1.9-0.2,2.6-0.2,2.6-2.4V49
	c-1.9,0.1-4.6,0.2-5.1,4.5h-0.8l0.1-5.4h16l0.1,5.4h-0.8c-0.5-4.3-3.3-4.4-5.1-4.5v14c0,2.3,0.6,2.3,2.6,2.4L223.4,66.2L223.4,66.2
	L223.4,66.2z M246.9,66.2h-9.1v-0.7c1.4-0.2,2.4-0.3,2.4-1.9v-6.1h-6.4v6.1c0,1.6,1,1.7,2.4,1.9v0.7h-9v-0.7
	c1.4-0.2,2.3-0.3,2.3-1.9V50.7c0-1.7-1.1-1.8-2.3-1.9v-0.7h9v0.7c-1.2,0.1-2.4,0.1-2.4,1.9v5.5h6.4v-5.5c0-1.8-1.2-1.8-2.4-1.9v-0.7
	h9.1v0.7c-1.1,0.1-2.3,0.2-2.3,1.9v12.9c0,1.6,0.9,1.7,2.3,1.9V66.2L246.9,66.2z M247.7,48.2h15.4v5.4h-0.7
	c-0.6-3.8-2.5-4.4-6.1-4.4c-1.5,0-1.9,0.1-1.9,1.3v6.2c2.6,0,3.9-0.7,4.3-4h0.7v9h-0.7c-0.3-3.3-1.7-4.1-4.3-4.1v6.4
	c0,1.2,0.5,1.5,2.2,1.5c2.6,0,5.3-0.7,7-4.7h0.7l-1.1,5.5h-15.6v-0.7c1.5-0.2,2.3-0.2,2.3-1.9V50.7c0-1.8-1.1-1.8-2.3-1.9V48.2
	L247.7,48.2z M271.1,63.7c0,1,0.7,1.5,1.7,1.5h1c2.9,0,4.2-2.2,4.2-3.8c0-3.8-2.3-4.5-4.1-4.6h-2.7v-1.2c3.6,0,5.1-0.4,5.1-3.1
	c0-1.9-0.4-3.3-2.6-3.3l-1.4,0c-0.7,0-1.2,0.5-1.1,1.1L271.1,63.7L271.1,63.7L271.1,63.7z M266.8,63.6V50.7c0-1.8-1.1-1.8-2.3-1.9
	v-0.7h8.2c1.5,0,7.5,0.1,7.4,4.3c0,1.2-0.6,2.5-1.6,3c-0.2,0.1-0.1,0.3,0,0.3c2.3,1.2,3.4,2.3,3.4,5.3c0,2.2-1.8,5-7.4,5.1h-10.1
	v-0.7C265.9,65.3,266.8,65.2,266.8,63.6L266.8,63.6z M298.4,48.8c-0.5,0.1-1.3,0.2-1.8,1l-5.1,8.3V63c0,2.2,0.6,2.3,2.5,2.4v0.7
	h-9.2v-0.7c1.8-0.2,2.5-0.2,2.5-2.4v-3.9l-4.9-8.8c-0.1-0.2-0.8-1.4-2.1-1.5v-0.7h8.9v0.7c-1.8,0-2.2,0.2-2.2,0.9
	c0,0.4,0.4,1.1,0.6,1.5l3.2,6.2l3-4.9c0.2-0.3,1-1.8,1-2.5c0-1-1-1.1-2.2-1.2v-0.7h5.9V48.8L298.4,48.8z M312.8,53.5
	c-0.5-1.9-2.1-4.9-5.2-4.9c-1.4,0-2.8,0.8-2.8,2.5c0,1.4,0.5,2,2.7,3.1l3.9,1.9c0.9,0.5,2.9,2,2.9,4.9c0,2.3-1.7,5.6-6.6,5.6
	c-2.5,0-3.7-0.9-4.6-0.9c-0.6,0-0.7,0.5-0.8,0.9h-0.8v-6.6h0.8c0.5,2.7,2.1,5.7,5.5,5.7c3.2,0,3.3-2.6,3.3-3c0-1.8-1.3-2.4-3-3.2
	l-1.8-0.9c-4.6-2.2-4.6-4.5-4.6-5.7c0-1.6,0.8-5.2,5.9-5.2c2.1,0,3.4,0.9,4.2,0.9c0.6,0,0.7-0.4,0.9-0.9h0.8v5.8L312.8,53.5
	L312.8,53.5L312.8,53.5z"/>
<path class="st4" d="M298.9,52.5c0.5-0.3,1.6-1.1,1.6-2c0-0.2-0.1-0.4-0.3-0.4c-0.1,0-0.2,0-0.4,0c-0.5,0-1-0.4-1-1.5
	c0-0.9,0.6-1.4,1.4-1.4c1.2,0,2.1,0.6,2.1,1.9c0,2.1-2.2,3.2-3.1,3.7L298.9,52.5L298.9,52.5z"/>
<path class="st4" d="M181.4,77.4h-3.9v-0.3c0.6-0.1,1-0.1,1-0.8V71c0-0.7-0.5-0.7-1-0.8v-0.3h3.9v0.3c-0.5,0-1,0-1,0.8v5.3
	c0,0.7,0.4,0.7,1,0.8V77.4z"/>
<path class="st4" d="M182.3,77.1c0.7-0.1,1-0.2,1-0.9V71c-0.6-0.8-0.8-0.8-0.9-0.8v-0.3h2.3l3.8,4.7h0v-3.3c0-0.7-0.1-1-1-1.1v-0.3
	h2.4v0.3c-0.8,0.1-0.9,0.4-0.9,0.9v6.5h-0.3l-4.9-6h0V76c0,0.8,0.2,1,1,1.1v0.3h-2.5L182.3,77.1L182.3,77.1L182.3,77.1z"/>
<path class="st4" d="M195.5,77.4h-3.9v-0.3c0.8-0.1,1.1-0.1,1.1-1v-5.8c-0.8,0-1.9,0.1-2.1,1.9h-0.3l0-2.2h6.6l0,2.2h-0.3
	c-0.2-1.8-1.4-1.8-2.1-1.9v5.8c0,0.9,0.3,1,1.1,1V77.4z"/>
<path class="st4" d="M197.4,69.9h6.3v2.2h-0.3c-0.3-1.6-1-1.8-2.5-1.8c-0.6,0-0.8,0-0.8,0.5v2.6c1.1,0,1.6-0.3,1.8-1.6h0.3v3.7h-0.3
	c-0.1-1.4-0.7-1.7-1.8-1.7v2.7c0,0.5,0.2,0.6,0.9,0.6c1.1,0,2.2-0.3,2.9-1.9h0.3l-0.4,2.3h-6.4v-0.3c0.6-0.1,1-0.1,1-0.8V71
	c0-0.7-0.5-0.7-1-0.8V69.9L197.4,69.9z"/>
<path class="st4" d="M207,70.8c0.1-0.3,0.1-0.5,0.7-0.5c0.9,0,1.3,0.5,1.3,1.6c0,1.4-0.6,1.7-2,1.7v0.4h0.3l2.3,3.4h2.3v-0.3
	c-0.2,0-0.3-0.1-0.5-0.2l-2.2-3.1c0.6-0.2,1.7-0.5,1.7-1.9c0-1.8-2.3-1.9-3.1-1.9h-3.5v0.3c0.6,0,1,0.1,1,1v4.9c0,0.9-0.2,0.9-1,1
	v0.3h3.7v-0.3c-0.7-0.1-1-0.1-1-1L207,70.8L207,70.8L207,70.8z M212.3,77.1c0.7-0.1,1-0.2,1-0.9V71c-0.6-0.8-0.8-0.8-0.9-0.8v-0.3
	h2.3l3.8,4.7h0v-3.3c0-0.7-0.1-1-1-1.1v-0.3h2.4v0.3c-0.8,0.1-0.9,0.4-0.9,0.9v6.5h-0.3l-4.9-6h0V76c0,0.8,0.2,1,1,1.1v0.3h-2.5
	L212.3,77.1L212.3,77.1L212.3,77.1z M224,75.2c0.2,0.4,0.5,1.2,0.5,1.5c0,0.4-0.2,0.4-0.9,0.4v0.3h3.6v-0.3c-0.5,0-0.7-0.4-1.2-1.5
	l-2.5-5.8h-0.3l-2.4,6c-0.3,0.8-0.5,1.2-1.1,1.3v0.3h2.2v-0.3c-0.4,0-0.9-0.1-0.9-0.5c0-0.2,0.2-0.6,0.5-1.4l0.2-0.4l1-2.7l1.1,2.7
	h-2.1l-0.2,0.4L224,75.2L224,75.2L224,75.2z M231.5,77.4h-3.9v-0.3c0.8-0.1,1.1-0.1,1.1-1v-5.8c-0.8,0-1.9,0.1-2.1,1.9h-0.3l0-2.2
	h6.6l0,2.2h-0.3c-0.2-1.8-1.4-1.8-2.1-1.9v5.8c0,0.9,0.3,1,1.1,1L231.5,77.4L231.5,77.4L231.5,77.4z M237.1,77.4h-3.9v-0.3
	c0.6-0.1,1-0.1,1-0.8V71c0-0.7-0.5-0.7-1-0.8v-0.3h3.9v0.3c-0.5,0-1,0-1,0.8v5.3c0,0.7,0.4,0.7,1,0.8V77.4z M241.3,70.1
	c1.5,0,1.9,1.9,1.9,3.5c0,1-0.1,3.5-1.9,3.5s-1.9-2.6-1.9-3.5C239.4,72.1,239.8,70.1,241.3,70.1v-0.4c-2.1,0-3.9,1.5-3.9,3.9
	c0,2.3,1.6,3.9,3.9,3.9c2.3,0,3.9-1.6,3.9-3.9c0-2.4-1.8-3.9-3.9-3.9V70.1z M245.6,77.1c0.7-0.1,1-0.2,1-0.9V71
	c-0.6-0.8-0.8-0.8-0.9-0.8v-0.3h2.3l3.8,4.7h0v-3.3c0-0.7-0.1-1-1-1.1v-0.3h2.4v0.3c-0.8,0.1-0.9,0.4-0.9,0.9v6.5H252l-4.9-6h0V76
	c0,0.8,0.2,1,1,1.1v0.3h-2.5L245.6,77.1L245.6,77.1L245.6,77.1z M267.1,77.4h-6.4v-0.3c0.6-0.1,0.9-0.1,0.9-0.8V71
	c0-0.7-0.5-0.7-0.9-0.8v-0.3h3.8v0.3c-0.8,0-1.1,0-1.1,1v5.2c0,0.5,0.2,0.6,1,0.6c1.7,0,2.3-0.9,2.8-2.2h0.3L267.1,77.4L267.1,77.4z
	 M274,70.8c0.1-0.3,0.1-0.5,0.7-0.5c0.9,0,1.3,0.5,1.3,1.6c0,1.4-0.6,1.7-2,1.7v0.4h0.3l2.3,3.4h2.3v-0.3c-0.2,0-0.3-0.1-0.5-0.2
	l-2.2-3.1c0.6-0.2,1.7-0.5,1.7-1.9c0-1.8-2.3-1.9-3.1-1.9h-3.5v0.3c0.6,0,1,0.1,1,1v4.9c0,0.9-0.2,0.9-1,1v0.3h3.7v-0.3
	c-0.7-0.1-1-0.1-1-1L274,70.8L274,70.8L274,70.8z M279.2,69.9h6.4v2.2h-0.3c-0.3-1.6-1-1.8-2.5-1.8c-0.6,0-0.8,0-0.8,0.5v2.6
	c1.1,0,1.6-0.3,1.8-1.6h0.3v3.7h-0.3c-0.1-1.4-0.7-1.7-1.8-1.7v2.7c0,0.5,0.2,0.6,0.9,0.6c1.1,0,2.2-0.3,2.9-1.9h0.3l-0.4,2.3h-6.4
	v-0.3c0.6-0.1,1-0.1,1-0.8V71c0-0.7-0.5-0.7-1-0.8V69.9L279.2,69.9z M290.6,75.2c0.2,0.4,0.5,1.2,0.5,1.5c0,0.4-0.2,0.4-0.9,0.4v0.3
	h3.6v-0.3c-0.5,0-0.7-0.4-1.2-1.5l-2.5-5.8h-0.3l-2.4,6c-0.3,0.8-0.5,1.2-1.1,1.3v0.3h2.2v-0.3c-0.4,0-0.9-0.1-0.9-0.5
	c0-0.2,0.2-0.6,0.5-1.4l0.2-0.4l1-2.7l1.1,2.7h-2.1l-0.2,0.4L290.6,75.2L290.6,75.2L290.6,75.2z M300.3,77.4H294v-0.3
	c0.6-0.1,0.9-0.1,0.9-0.8V71c0-0.7-0.5-0.7-0.9-0.8v-0.3h3.8v0.3c-0.8,0-1.1,0-1.1,1v5.2c0,0.5,0.2,0.6,1,0.6c1.7,0,2.3-0.9,2.8-2.2
	h0.3L300.3,77.4L300.3,77.4z"/>
<path class="st4" d="M305,77.4h-3.9v-0.3c0.8-0.1,1.1-0.1,1.1-1v-5.8c-0.8,0-1.9,0.1-2.1,1.9h-0.3l0-2.2h6.6l0,2.2H306
	c-0.2-1.8-1.4-1.8-2.1-1.9v5.8c0,0.9,0.3,1,1.1,1L305,77.4L305,77.4L305,77.4z"/>
<path class="st4" d="M314.4,70.2c-0.2,0-0.5,0.1-0.7,0.4l-2.1,3.4v2c0,0.9,0.2,0.9,1,1v0.3h-3.8v-0.3c0.8-0.1,1-0.1,1-1v-1.6l-2-3.7
	c-0.1-0.1-0.3-0.6-0.9-0.6v-0.3h3.7v0.3c-0.8,0-0.9,0.1-0.9,0.4c0,0.2,0.2,0.4,0.3,0.6l1.3,2.6l1.2-2c0.1-0.1,0.4-0.7,0.4-1
	c0-0.4-0.4-0.5-0.9-0.5v-0.3h2.4L314.4,70.2L314.4,70.2L314.4,70.2z"/>
</svg>
